<?xml version="1.0" encoding="UTF-8"?><svg xmlns="http://www.w3.org/2000/svg" width="860" height="660" xmlns:xlink="http://www.w3.org/1999/xlink" viewBox="0 0 860 660"><defs><style>.cls-1{fill:#f9b900;}.cls-1,.cls-2,.cls-3,.cls-4,.cls-5,.cls-6,.cls-7,.cls-8,.cls-9,.cls-10,.cls-11,.cls-12,.cls-13,.cls-14,.cls-15,.cls-16,.cls-17,.cls-18,.cls-19,.cls-20,.cls-21,.cls-22,.cls-23,.cls-24,.cls-25,.cls-26,.cls-27,.cls-28,.cls-29,.cls-30,.cls-31,.cls-32,.cls-33,.cls-34,.cls-35,.cls-36,.cls-37,.cls-38,.cls-39,.cls-40,.cls-41,.cls-42,.cls-43,.cls-44,.cls-45,.cls-46,.cls-47,.cls-48,.cls-49{stroke-width:0px;}.cls-2{fill:#999;}.cls-3{fill:#a3a3a3;}.cls-50{opacity:.4;}.cls-50,.cls-51{mix-blend-mode:multiply;}.cls-4{fill:#2d9ccc;}.cls-5{fill:#020204;}.cls-6{fill:#d54820;}.cls-7{fill:#d2ebf9;}.cls-8{fill:#b6c5ce;}.cls-9{fill:#aeddef;}.cls-10{fill:#be202e;}.cls-11{fill:#323a38;}.cls-12{fill:#2eaae0;}.cls-52{isolation:isolate;}.cls-13{fill:#f7f7f7;}.cls-14{fill:#9c9c9c;}.cls-15{fill:#aeddee;}.cls-16{fill:#e95724;}.cls-17{fill:#787877;}.cls-18{fill:#6b6b6b;}.cls-19{fill:#f7b057;}.cls-20{fill:#bfbfbf;}.cls-21{fill:#a81d28;}.cls-22{fill:#ccc;}.cls-23{fill:#d23548;}.cls-24{fill:#e95725;}.cls-25{fill:#2170b6;}.cls-26{fill:#1a1a18;}.cls-27{fill:#fff;}.cls-28{fill:#ededed;}.cls-29{fill:#b37761;}.cls-30{fill:#007bb2;}.cls-31{fill:#4c4c4c;}.cls-32{fill:#e96448;}.cls-33{fill:#ec775d;}.cls-51{opacity:.22;}.cls-34{fill:#f19320;}.cls-35{fill:#d9d9d9;}.cls-36{fill:#ffd22d;}.cls-37{fill:#313131;}.cls-38{fill:#dbedff;}.cls-39{fill:#a8c4e5;}.cls-40{fill:#ca8d58;}.cls-41{fill:#3d1209;}.cls-42{fill:#21ded5;}.cls-43{fill:#594c3c;}.cls-44{fill:#e8e8e8;}.cls-45{fill:#e0ac7a;}.cls-46{fill:#4c5755;}.cls-47{fill:url(#Unbenannter_Verlauf_10);}.cls-48{fill:#45446c;}.cls-49{fill:#ffdc23;}</style><linearGradient id="Unbenannter_Verlauf_10" x1="314.41" y1="210.79" x2="275.85" y2="245.91" gradientUnits="userSpaceOnUse"><stop offset="0" stop-color="#e78417"/><stop offset="1" stop-color="#f6af57"/></linearGradient></defs><g class="cls-52"><g id="image"><g class="cls-50"><ellipse class="cls-35" cx="190.53" cy="415.94" rx="33.4" ry="17.01"/></g><path class="cls-25" d="m202.45,410.24l-6.69,1.26c-4.93-.57-7.42-1.39-8.98.34l-.44.49c-1.56,1.72-.69,3.6,1.93,4.16l11.88,4.48c2.63.57,5.48-.8,6.75-2.92,0,0,.75-1.3-1.3-5.07-1.17-2.15-1.04-2.29-3.14-2.74Z"/><path class="cls-45" d="m196.99,413.29c1.49,3.49,8.03,2.73,7.92-.14-1.73-19.53-.23-38.44,3.02-56.93,1.24-7.01-9.05-10.3-12.78-4.08h0c-5.54,1.81-5.34,28.3,1.83,61.15Z"/><path class="cls-25" d="m185.95,415.23l-6.69,1.26c-4.93-.57-7.42-1.39-8.98.34l-.44.49c-1.56,1.72-.69,3.6,1.93,4.16l11.88,4.48c2.63.57,5.48-.8,6.75-2.92,0,0,.75-1.3-1.3-5.07-1.17-2.15-1.04-2.29-3.14-2.74Z"/><path class="cls-45" d="m180.56,418.2c1.38,3.62,7.95,2.83,7.92-.14-1.12-20.24.95-39.85,4.78-59.01,1.45-7.27-8.73-10.67-12.65-4.23h0c-5.59,1.87-6.21,29.34-.05,63.38Z"/><path class="cls-2" d="m723.98,507.34l-.08-11.56-13.49,6.29-2.89-6.66-337.84-195.05c-4.07-2.35-11.96-2.05-16.66.66l-146.17,83.98v-2.34l-22.43,10.8-3.22-1.26.37,10.26c.34,2.24,1.18,3.16,2.55,3.96l351.56,203.51c4.07,2.35,11.24,2.32,15.94-.39l168.46-97.13c2.56-1.48,3.87-3.32,3.88-5.13v.07Z"/><path class="cls-22" d="m206.85,384.99v-.87l-1.37-.81-15.54,7.8-8.87-2.53.5,13.86c.34,2.24,1.18,3.16,2.55,3.96l351.56,203.51c.82.48,1.78.85,2.81,1.13v-31.83l-330.89-194.65-.75.43Z"/><path class="cls-3" d="m740.94,209.63s11.02,2.9,11.14,2.97c.11.07-5.65,4.23-4.5,1.82.04-.08,5.32.76,5.39.81l9.31-5.59c-1.3-.74-10.29-6.6-10.32-6.61l-.03.02L425.98,18.51s-.02,0-.02-.01l-.49-.28s0,0,0,0c-.38-.21-.82-.46-.88-.49-.11-.06-.23-.12-.34-.18-.12-.06-.23-.11-.34-.16-.11-.05-.23-.1-.34-.15-.12-.05-.24-.1-.35-.14-.12-.04-.23-.08-.35-.12-.12-.04-.25-.08-.37-.11,0,0-.01,0-.02,0,0,0,0,0,0,0-.01,0-.02,0-.03,0-.11-.03-.21-.06-.32-.08-.05-.01-.11-.02-.16-.03-.04,0-.09-.02-.13-.03-.03,0-.07-.01-.1-.02-.13-.02-.26-.04-.38-.05-.01,0-.02,0-.03,0,0,0,0,0,0,0-.15-.02-.3-.03-.44-.03-.02,0-.03,0-.05,0-.07,0-.13,0-.2,0-.08,0-.16,0-.23,0-.02,0-.04,0-.06,0-.11,0-.21.02-.31.03-.06,0-.11,0-.17.02-.01,0-.02,0-.04,0-.2.03-.4.08-.59.14-.01,0-.03,0-.04,0-.02,0-.04.02-.06.03-.24.08-.48.18-.69.3l-8.34,4.78c.21-.12.44-.22.68-.3.09-.03.19-.06.28-.08.11-.03.23-.06.35-.08.14-.03.28-.04.43-.06.06,0,.11-.01.17-.02.2-.01.41-.01.63,0,.04,0,.08,0,.12,0,.22.02.44.04.67.08.02,0,.03,0,.05,0,.24.04.49.1.74.17.02,0,.04.01.06.02.25.07.5.16.75.26.03,0,.05.02.08.03.27.11.54.23.82.36.11.06.23.11.34.17.09.05.18.1.26.15l1.84,1.04,314.5,180.37,8.09,5.57ZM423.01,18.92h0s0,0,0,0h0Z"/><g class="cls-50"><ellipse class="cls-35" cx="462.3" cy="632.97" rx="37.83" ry="19.27"/></g><path class="cls-13" d="m759.2,247.76c4.69,2.71,7.83,8.92,7.03,13.9l-36.48,225.49c-.8,4.97-5.25,6.81-9.94,4.1l-345.35-199.39c-4.69-2.71-7.83-8.92-7.03-13.9l36.48-225.49c.81-4.97,5.25-6.81,9.94-4.1l345.35,199.39Z"/><path class="cls-18" d="m780.11,227.88c0-.13,0-.26-.02-.38,0-.02,0-.04,0-.05,0-.02,0-.04,0-.05,0-.09-.01-.18-.02-.27-.01-.13-.03-.25-.04-.38,0-.06-.02-.12-.03-.18,0-.03,0-.05-.01-.08,0-.04-.01-.08-.02-.12-.02-.13-.04-.25-.07-.38-.02-.12-.05-.24-.07-.36,0,0,0,0,0-.01,0,0,0,0,0,0-.03-.13-.06-.25-.09-.38-.03-.13-.06-.25-.1-.38,0-.03-.02-.07-.03-.1,0-.02-.01-.05-.02-.07-.02-.07-.04-.14-.06-.2-.04-.12-.08-.24-.12-.36-.03-.09-.06-.18-.09-.27,0-.01,0-.03-.01-.04,0-.01,0-.03-.01-.04-.04-.11-.08-.23-.13-.34-.04-.11-.09-.22-.13-.33-.02-.05-.04-.09-.06-.14,0-.02-.02-.04-.03-.06-.02-.04-.04-.09-.05-.13-.05-.11-.1-.22-.15-.34-.05-.11-.11-.22-.16-.33,0-.01-.01-.02-.02-.03,0-.02-.02-.03-.03-.05-.06-.12-.12-.23-.18-.35-.06-.11-.12-.21-.18-.32-.04-.07-.08-.14-.12-.21-.02-.03-.04-.07-.06-.1-.1-.17-.21-.34-.32-.51-.04-.05-.07-.11-.1-.17,0,0-.01-.02-.02-.03-.14-.21-.29-.42-.44-.62-.02-.03-.04-.06-.07-.09-.02-.03-.04-.05-.06-.08-.05-.07-.1-.14-.16-.21-.09-.11-.18-.23-.27-.34-.04-.04-.07-.08-.11-.13-.02-.02-.04-.04-.06-.06-.03-.04-.07-.08-.1-.12-.09-.1-.18-.21-.28-.31-.07-.08-.14-.15-.22-.23-.01-.01-.03-.03-.04-.04-.01-.01-.02-.02-.04-.04-.1-.1-.2-.2-.31-.3-.11-.1-.21-.2-.32-.3,0,0,0,0,0,0,0,0,0,0,0,0-.1-.09-.21-.19-.32-.28-.11-.09-.23-.19-.34-.28-.01-.01-.03-.02-.04-.03-.02-.01-.03-.02-.05-.04-.08-.06-.17-.13-.25-.19-.11-.08-.23-.17-.35-.25-.03-.02-.07-.04-.1-.06-.01,0-.02-.02-.03-.02,0,0,0,0-.01,0-.07-.05-.14-.09-.21-.14-.12-.07-.23-.15-.35-.21-.03-.02-12.15-6.77-12.18-6.79l-10.56,6.73s12.92,6.04,13.04,6.11c.12.07.23.15.35.23.12.08.23.16.35.25.12.08.23.17.34.26.05.04.09.08.14.12.18.15.36.3.53.45h0s0,0,0,0c.18.16.35.32.52.49.02.02.04.04.06.06.16.16.32.33.47.5.02.03.05.05.07.08.15.17.29.34.44.51.03.03.05.06.08.09.14.17.28.35.41.53.07.09.13.19.2.29.08.12.16.23.24.35.09.14.18.28.26.41.06.09.11.18.17.27.05.08.09.16.14.24.08.14.16.29.24.43.02.04.04.08.06.12.1.2.21.4.3.61,0,.02.02.03.02.05.1.22.19.43.28.65,0,.02.02.04.03.07.09.21.17.43.24.64,0,.03.02.06.03.08.07.21.14.42.2.64,0,.03.02.06.03.1.06.21.12.43.17.64,0,.03.02.07.02.1.05.21.09.43.13.64,0,.03.01.06.02.09.04.22.07.43.1.65,0,.03,0,.06,0,.09.02.22.04.43.06.65,0,.11.01.22.02.32,0,.13,0,.26,0,.38,0,.13,0,.27,0,.4,0,.13-.01.27-.02.4-.01.14-.03.29-.04.43-.01.11-.03.22-.05.33,0,0-.04.22-.1.59l-.9,5.58c-.51-.29-1.63-.94-1.65-.95l-10.41,5.63s2.49,1.44,2.6,1.52c.12.07.23.15.35.23.12.08.23.16.35.25.12.08.23.17.34.26.05.04.09.08.14.12.18.15.36.3.53.45h0s0,0,0,0c.18.16.35.32.52.49.02.02.04.04.06.06.16.16.32.33.47.5.02.03.05.05.07.08.15.17.29.34.44.51.03.03.05.06.08.09.14.17.28.35.41.53.07.09.13.19.2.29.08.12.16.23.24.35.09.14.18.28.26.41.06.09.11.18.17.27.05.08.09.16.14.24.08.14.16.29.24.43.02.04.04.08.06.12.1.2.21.4.3.61,0,.02.02.03.02.05.1.22.19.43.28.65,0,.02.02.04.03.07.09.21.17.43.24.64,0,.03.02.06.03.08.07.21.14.42.2.64,0,.03.02.06.03.1.06.21.12.43.17.64,0,.03.02.07.02.1.05.21.09.43.13.64,0,.03.01.06.02.09.04.22.07.43.1.65,0,.03,0,.06,0,.09.01.09.02.18.02.27l-32.28,199.47c-.17,1.06-4.27,7.82-3.34,7.28l2.92-2.47-3.43,21.2c-.17,1.06-4.27,7.82-3.34,7.28l9.83-8.34c2.08-1.76,3.46-4.21,3.9-6.91l35.29-218.08c.17-1.06.43-2.64.43-2.64.02-.11.03-.22.05-.33.01-.09.02-.19.03-.28,0,0,0-.01,0-.02,0-.01,0-.03,0-.04,0-.03,0-.06,0-.09.01-.13.02-.26.02-.4,0-.11,0-.21,0-.32,0-.02,0-.03,0-.05,0-.01,0-.02,0-.04,0-.13,0-.25,0-.38,0-.13,0-.26-.02-.38,0-.02,0-.04,0-.05,0-.02,0-.04,0-.05,0-.08-.01-.15-.02-.23l3.35-20.71c.17-1.06.43-2.64.43-2.64.02-.11.03-.22.05-.33.01-.09.02-.19.03-.28,0,0,0-.01,0-.02,0-.01,0-.03,0-.04,0-.03,0-.06,0-.09.01-.13.02-.26.02-.4,0-.11,0-.21,0-.32,0-.02,0-.03,0-.05,0-.01,0-.02,0-.04,0-.13,0-.25,0-.38Z"/><path class="cls-26" d="m763.02,221.49c4.69,2.71,7.83,8.93,7.03,13.9l-36.48,225.49c-.8,4.97-5.25,6.81-9.94,4.1l-345.35-199.39c-4.69-2.71-7.83-8.93-7.03-13.9l36.48-225.49c.81-4.97,5.25-6.81,9.94-4.1l345.35,199.39Z"/><path class="cls-12" d="m750.68,236c4.45,2.52,7.46,7.94,6.73,12.11l-33,189.17c-.72,4.17-4.92,5.51-9.36,2.99l-327.56-185.56c-4.45-2.52-7.46-7.94-6.73-12.11l32.99-189.18c.73-4.17,4.92-5.51,9.36-2.99l327.57,185.57Z"/><path class="cls-4" d="m745.26,234.98c.31-.43.69-.88,1.11-1.33l-39-22.2s0,.02,0,.03c-1.05,6.62-2.2,45.83-1.53,55.05.08,1.1.65,2.1,1.53,2.74v4.93c-.08.04-.17.08-.24.13l-12.7,12.77c-2.26,1.33-2.48,3.32-.5,4.42l.56.31c1.99,1.1,5.46.91,7.73-.42l13.43-7.9c2.26-1.33,2.59-1.87,2.13-5.52l-.22-2.54c-.06-.71-.42-1.34-.95-1.76v-4.92c.39-.56.72-1.23.98-2.08,2.16-7.23,1.72-30.15,5.78-40.48-.53,7.72,3.22,41.61,4.21,50.32.12,1.07.71,2.01,1.57,2.62l.89,7.05c-.08.05-.15.1-.22.16l-11,14.23c-2.08,1.6-2.05,3.6.06,4.45l.6.24c2.11.85,5.54.23,7.61-1.36l12.33-9.49c2.08-1.6,2.33-2.17,1.43-5.74l-.54-2.49c-.15-.69-.58-1.27-1.16-1.63l-.76-6.02c.41-.56.75-1.25.99-2.12,2.14-7.72.37-33.76,5.89-41.43Z"/><path class="cls-5" d="m662.28,402.02l-232.34-133.12c-5.13-2.94-8.04-11.51-6.45-19.04l32.09-152.83c1.58-7.53,7.07-11.29,12.2-8.35l234.55,134.65c5.13,2.94,6.35,7.1,4.77,14.64l-32.62,155.7c-1.58,7.53-7.07,11.29-12.21,8.35Z"/><path class="cls-27" d="m506.92,155.09c-.25.01-.5-.05-.73-.19l-23.1-13.44c-.71-.41-.98-1.36-.62-2.13.36-.77,1.23-1.05,1.93-.64l23.1,13.44c.71.41.98,1.36.62,2.13-.24.51-.71.81-1.2.83Z"/><path class="cls-27" d="m493.98,208.25c-.25.01-.5-.05-.73-.19l-23.1-13.44c-.71-.41-.98-1.36-.62-2.13.36-.77,1.23-1.05,1.93-.64l23.1,13.44c.71.41.98,1.36.62,2.13-.24.51-.71.81-1.2.83Z"/><path class="cls-27" d="m491.67,221.44c-.25.01-.5-.05-.73-.19l-23.1-13.44c-.71-.41-.98-1.36-.62-2.13.36-.77,1.23-1.05,1.93-.64l23.1,13.44c.71.41.98,1.36.62,2.13-.24.51-.71.81-1.2.83Z"/><path class="cls-27" d="m488.99,235.38c-.25.01-.5-.05-.73-.19l-23.1-13.44c-.71-.41-.98-1.36-.62-2.13.36-.77,1.23-1.05,1.93-.64l23.1,13.44c.71.41.98,1.36.62,2.13-.24.51-.71.81-1.2.83Z"/><path class="cls-24" d="m502.11,167.88c-.25.01-.5-.05-.73-.19l-12.56-7.31c-.71-.41-.98-1.36-.62-2.13.36-.77,1.23-1.05,1.93-.64l12.56,7.31c.71.41.98,1.36.62,2.13-.24.51-.71.81-1.2.83Z"/><path class="cls-24" d="m498.47,181.35c-.25.01-.5-.05-.73-.19l-11.2-6.52c-.71-.41-.98-1.36-.62-2.13.36-.77,1.23-1.05,1.93-.64l11.2,6.52c.71.41.98,1.36.62,2.13-.24.51-.71.81-1.2.83Z"/><path class="cls-24" d="m496.13,195.56c-.25.01-.5-.05-.73-.19l-13.09-7.61c-.71-.41-.98-1.36-.62-2.13.36-.77,1.23-1.05,1.93-.64l13.09,7.61c.71.41.98,1.36.62,2.13-.24.51-.71.81-1.2.83Z"/><path class="cls-24" d="m486.5,247.08c-.25.01-.5-.05-.73-.19l-12.56-7.31c-.71-.41-.98-1.36-.62-2.13.36-.77,1.23-1.05,1.93-.64l12.56,7.31c.71.41.98,1.36.62,2.13-.24.51-.71.81-1.2.83Z"/><path class="cls-24" d="m482.44,260.3c-.25.01-.5-.05-.73-.19l-11.2-6.52c-.71-.41-.98-1.36-.62-2.13.36-.77,1.23-1.05,1.93-.64l11.2,6.52c.71.41.98,1.36.62,2.13-.24.51-.71.81-1.2.83Z"/><path class="cls-27" d="m569.65,192.11c-.25.01-.5-.05-.73-.18l-32.79-18.97c-.71-.41-.99-1.36-.63-2.13.36-.77,1.23-1.06,1.93-.65l32.79,18.97c.71.41.99,1.36.63,2.13-.24.51-.71.81-1.2.83Z"/><path class="cls-27" d="m635.94,323.98c-.25.01-.5-.05-.73-.18l-81.26-47c-.71-.41-.99-1.36-.63-2.13.36-.77,1.23-1.06,1.93-.65l81.26,47c.71.41.99,1.36.63,2.13-.24.51-.71.81-1.2.83Z"/><path class="cls-27" d="m541.38,269.28c-.25.01-.5-.05-.73-.18l-18.79-10.87c-.71-.41-.99-1.36-.63-2.13.36-.77,1.23-1.06,1.93-.65l18.79,10.87c.71.41.99,1.36.63,2.13-.24.51-.71.81-1.2.83Z"/><path class="cls-34" d="m578.17,314.22c-.25.01-.5-.05-.73-.18l-58.07-33.59c-.71-.41-.99-1.36-.63-2.13.36-.77,1.23-1.06,1.93-.65l58.07,33.59c.71.41.99,1.36.63,2.13-.24.51-.71.81-1.2.83Z"/><path class="cls-34" d="m645.07,257.17c-.25.01-.5-.05-.73-.18l-23.64-13.68c-.71-.41-.99-1.36-.63-2.13.36-.77,1.23-1.06,1.93-.65l23.64,13.68c.71.41.99,1.36.63,2.13-.24.51-.71.81-1.2.83Z"/><path class="cls-27" d="m597.79,229.82c-.25.01-.5-.05-.73-.18l-44.94-25.99c-.71-.41-.99-1.36-.63-2.13.36-.77,1.23-1.06,1.93-.65l44.94,25.99c.71.41.99,1.36.63,2.13-.24.51-.71.81-1.2.83Z"/><path class="cls-34" d="m639.72,276.51c-.25.01-.5-.05-.73-.18l-89.23-51.61c-.71-.41-.99-1.36-.63-2.13.36-.77,1.23-1.06,1.93-.65l89.23,51.61c.71.41.99,1.36.63,2.13-.24.51-.71.81-1.2.83Z"/><path class="cls-27" d="m636.95,301.17c-.25.01-.5-.05-.73-.18l-26.85-15.53c-.71-.41-.99-1.36-.63-2.13.36-.77,1.23-1.05,1.93-.65l26.85,15.53c.71.41.99,1.36.63,2.13-.24.51-.71.81-1.2.83Z"/><path class="cls-27" d="m597.2,278.55c-.25.01-.51-.05-.74-.19l-23.88-14.14c-.7-.42-.97-1.37-.61-2.13.37-.76,1.23-1.04,1.94-.63l23.88,14.14c.7.42.97,1.37.61,2.13-.24.5-.71.8-1.19.82Z"/><path class="cls-27" d="m563.13,258.46c-.25.01-.5-.05-.73-.18l-15.41-8.91c-.71-.41-.99-1.36-.63-2.13.36-.76,1.23-1.06,1.93-.65l15.41,8.91c.71.41.99,1.36.63,2.13-.24.51-.71.81-1.2.83Z"/><path class="cls-28" d="m535.76,597.39l-351.81-205.04c-4.07-2.35-3.55-6.49,1.14-9.2l176.79-97.9c4.7-2.71,11.87-3.01,15.94-.66l347.93,201.58c4.07,2.35,3.55,6.49-1.14,9.2l-172.91,101.37c-4.7,2.71-11.87,3.01-15.94.66Z"/><path class="cls-22" d="m382.51,327.73c-.51.29-1.55.17-2.32-.27l-21.34-12.32c-.77-.44-.98-1.05-.47-1.34l14.14-8.17c.51-.3,1.55-.17,2.32.27l21.34,12.32c.77.44.98,1.04.47,1.34l-14.14,8.17Z"/><path class="cls-22" d="m407.27,364.51c-.52.3-1.55.18-2.33-.27l-21.34-12.32c-.77-.44-.97-1.04-.46-1.34l14.14-8.17c.5-.29,1.54-.17,2.31.27l21.34,12.32c.78.45.98,1.05.48,1.34l-14.14,8.17Z"/><path class="cls-22" d="m394.76,379.78c-.51.3-1.55.17-2.32-.27l-21.35-12.32c-.76-.44-.99-1.04-.47-1.34l14.15-8.17c.5-.29,1.56-.16,2.31.27l21.35,12.32c.77.44.98,1.05.48,1.34l-14.15,8.17Z"/><path class="cls-22" d="m360.89,382.72c-.51.29-1.55.17-2.31-.27l-21.34-12.32c-.76-.44-.97-1.04-.47-1.34l14.14-8.17c.51-.29,1.56-.17,2.32.27l21.34,12.32c.76.44.97,1.04.46,1.34l-14.14,8.17Z"/><path class="cls-22" d="m302.15,374.16c-.51.29-1.55.17-2.32-.27l-21.34-12.32c-.77-.44-.98-1.04-.47-1.34l16.61-9.59c.5-.29,1.55-.17,2.32.27l21.34,12.32c.77.44.97,1.05.47,1.34l-16.61,9.59Z"/><path class="cls-22" d="m338.95,395.39c-.51.29-1.74.06-2.76-.52l-27.96-16.14c-1-.58-1.41-1.29-.9-1.59l16.61-9.59c.5-.29,1.75-.06,2.75.52l27.96,16.14c1.01.59,1.41,1.3.91,1.59l-16.61,9.59Z"/><path class="cls-22" d="m522.66,501.56c-.42.25-1.4.08-2.16-.36l-21.33-12.31c-.78-.45-1.07-1.01-.64-1.26l6.14-3.55c.42-.24,1.4-.08,2.18.37l21.33,12.31c.77.44,1.05,1.01.63,1.25l-6.14,3.55Z"/><path class="cls-22" d="m551.18,518.44c-.42.25-1.4.08-2.16-.36l-21.33-12.31c-.78-.45-1.07-1.01-.64-1.26l6.14-3.55c.42-.24,1.4-.08,2.18.37l21.33,12.31c.77.44,1.05,1.01.63,1.25l-6.14,3.55Z"/><path class="cls-22" d="m581.41,535.49c-.41.24-1.37.06-2.14-.38l-21.33-12.31c-.77-.44-1.07-1-.66-1.24l5.91-3.42c.4-.23,1.38-.06,2.15.38l21.33,12.31c.77.44,1.06,1,.66,1.23l-5.91,3.42Z"/><path class="cls-22" d="m562.82,511.93c-.41.24-1.37.06-2.14-.38l-21.33-12.31c-.77-.44-1.07-1-.66-1.24l5.91-3.42c.4-.23,1.38-.06,2.15.38l21.33,12.31c.77.44,1.06,1,.66,1.23l-5.91,3.42Z"/><path class="cls-22" d="m485.77,480.1c-.51.29-1.56.17-2.33-.28l-138.89-80.15c-.76-.44-.98-1.05-.47-1.34l16.61-9.59c.5-.29,1.56-.16,2.32.27l138.89,80.15c.77.45.98,1.06.48,1.34l-16.61,9.59Z"/><path class="cls-22" d="m335.14,390.1s-.13,0-.22-.06l-16.32-9.42c-.09-.05-.14-.11-.11-.13l1.03-.6s.13.01.22.06l16.32,9.42c.09.05.14.11.11.13l-1.03.6Z"/><path class="cls-22" d="m293.31,364.15s-.09.01-.13,0l-6.93-4s-.04-.06-.01-.07l1.03-.6s.09-.01.13,0l6.93,4s.04.06.01.07l-1.03.6Z"/><path class="cls-22" d="m390.15,399.59c-.51.29-1.55.17-2.32-.27l-21.34-12.32c-.76-.44-.98-1.05-.47-1.34l14.14-8.17c.51-.29,1.57-.17,2.33.27l21.34,12.32c.77.45.98,1.05.47,1.34l-14.14,8.17Z"/><path class="cls-22" d="m419.53,416.55c-.51.29-1.55.17-2.31-.27l-21.34-12.32c-.77-.44-.98-1.05-.48-1.34l14.14-8.17c.51-.29,1.56-.17,2.33.27l21.34,12.32c.76.44.97,1.04.46,1.34l-14.14,8.17Z"/><path class="cls-22" d="m448.92,433.51c-.51.29-1.55.17-2.31-.27l-21.34-12.32c-.76-.44-.97-1.04-.47-1.33l14.14-8.17c.51-.29,1.55-.17,2.32.27l21.34,12.32c.76.44.97,1.04.46,1.34l-14.14,8.17Z"/><path class="cls-22" d="m478.31,450.47c-.51.29-1.55.17-2.31-.27l-21.34-12.32c-.77-.45-.98-1.05-.47-1.34l14.14-8.17c.51-.29,1.55-.17,2.33.27l21.34,12.32c.77.44.97,1.04.46,1.34l-14.14,8.17Z"/><path class="cls-22" d="m507.7,467.43c-.51.29-1.56.17-2.33-.28l-21.34-12.31c-.76-.44-.97-1.04-.47-1.33l14.14-8.17c.51-.29,1.55-.17,2.32.27l21.34,12.31c.77.45.99,1.05.48,1.35l-14.14,8.17Z"/><path class="cls-22" d="m537.1,484.38c-.51.29-1.55.17-2.32-.27l-21.34-12.31c-.77-.44-.98-1.05-.47-1.34l14.14-8.17c.51-.29,1.56-.17,2.33.27l21.34,12.31c.77.44.97,1.05.47,1.34l-14.14,8.17Z"/><path class="cls-22" d="m603.29,522.58c-.51.29-1.55.17-2.32-.27l-58.15-33.56c-.77-.44-.98-1.05-.47-1.34l14.14-8.17c.51-.29,1.55-.17,2.32.27l58.15,33.56c.77.44.97,1.05.47,1.34l-14.14,8.17Z"/><path class="cls-22" d="m424,396.64c-.51.3-1.53.18-2.31-.27l-21.35-12.32c-.77-.44-.98-1.04-.47-1.33l14.15-8.17c.5-.29,1.54-.17,2.31.27l21.35,12.32c.77.45.97,1.04.47,1.33l-14.15,8.17Z"/><path class="cls-22" d="m453.4,413.6c-.51.3-1.55.17-2.31-.27l-21.35-12.32c-.76-.44-.97-1.03-.46-1.33l14.15-8.17c.5-.29,1.54-.17,2.3.27l21.35,12.32c.76.44.97,1.04.47,1.33l-14.15,8.17Z"/><path class="cls-22" d="m482.79,430.56c-.51.3-1.55.17-2.32-.27l-21.34-12.32c-.76-.44-.99-1.04-.48-1.34l14.15-8.17c.5-.29,1.56-.16,2.32.28l21.34,12.32c.76.44.98,1.05.48,1.34l-14.15,8.17Z"/><path class="cls-22" d="m512.17,447.52c-.51.3-1.55.17-2.31-.27l-21.34-12.31c-.77-.44-.99-1.04-.47-1.34l14.15-8.17c.5-.29,1.54-.17,2.31.27l21.34,12.31c.77.44.97,1.04.47,1.33l-14.15,8.17Z"/><path class="cls-22" d="m541.57,464.47c-.51.3-1.55.17-2.31-.27l-21.35-12.32c-.77-.44-.98-1.04-.47-1.33l14.15-8.17c.5-.29,1.54-.17,2.31.27l21.35,12.32c.76.44.97,1.04.47,1.33l-14.15,8.17Z"/><path class="cls-22" d="m570.95,481.43c-.51.3-1.54.17-2.31-.27l-21.34-12.31c-.78-.45-.99-1.04-.48-1.34l14.15-8.17c.5-.29,1.54-.17,2.32.28l21.34,12.31c.77.44.97,1.04.47,1.33l-14.15,8.17Z"/><path class="cls-22" d="m600.34,498.39c-.51.3-1.55.17-2.31-.27l-21.35-12.32c-.76-.44-.97-1.03-.46-1.33l14.15-8.17c.5-.29,1.54-.17,2.3.27l21.35,12.32c.76.44.97,1.04.47,1.33l-14.15,8.17Z"/><path class="cls-22" d="m436.53,381.38c-.52.3-1.55.18-2.33-.27l-21.34-12.32c-.76-.44-.97-1.04-.45-1.34l14.14-8.17c.5-.29,1.54-.17,2.3.27l21.34,12.32c.77.44.98,1.05.48,1.34l-14.14,8.17Z"/><path class="cls-22" d="m465.91,398.33c-.52.3-1.56.18-2.32-.26l-21.34-12.32c-.77-.44-.98-1.04-.46-1.34l14.14-8.17c.5-.29,1.55-.17,2.31.27l21.34,12.32c.76.44.97,1.04.47,1.33l-14.14,8.17Z"/><path class="cls-22" d="m495.3,415.29c-.52.3-1.56.18-2.33-.27l-21.34-12.32c-.76-.44-.97-1.04-.46-1.34l14.14-8.17c.5-.29,1.54-.17,2.31.27l21.34,12.32c.77.45.98,1.05.48,1.34l-14.14,8.17Z"/><path class="cls-22" d="m524.68,432.25c-.52.3-1.55.18-2.32-.26l-21.34-12.32c-.77-.44-.98-1.04-.46-1.34l14.14-8.17c.5-.29,1.54-.17,2.31.27l21.34,12.32c.77.44.97,1.04.47,1.33l-14.14,8.17Z"/><path class="cls-22" d="m554.08,449.2c-.52.3-1.56.18-2.31-.26l-21.34-12.32c-.77-.45-.98-1.04-.46-1.34l14.14-8.17c.5-.29,1.54-.17,2.31.27l21.34,12.32c.76.44.96,1.04.46,1.33l-14.14,8.17Z"/><path class="cls-22" d="m583.47,466.16c-.52.3-1.56.18-2.33-.27l-21.34-12.32c-.76-.44-.97-1.04-.46-1.34l14.14-8.17c.5-.29,1.55-.17,2.31.27l21.34,12.32c.78.45.98,1.05.48,1.34l-14.14,8.17Z"/><path class="cls-22" d="m612.86,483.12c-.52.3-1.56.18-2.32-.26l-21.34-12.32c-.77-.44-.98-1.04-.46-1.34l14.14-8.17c.5-.29,1.54-.17,2.31.27l21.34,12.32c.76.44.97,1.04.47,1.33l-14.14,8.17Z"/><path class="cls-22" d="m377.89,347.55c-.52.3-1.56.18-2.33-.27l-36.19-20.88c-.77-.44-.98-1.05-.47-1.34l14.14-8.17c.5-.29,1.54-.17,2.32.27l36.19,20.88c.77.44.98,1.05.48,1.34l-14.14,8.17Z"/><path class="cls-22" d="m661.72,488.83c-.51.29-1.55.17-2.32-.27l-36.19-20.88c-.76-.44-.98-1.04-.47-1.34l14.14-8.17c.51-.3,1.56-.17,2.32.27l36.19,20.88c.77.44.98,1.04.47,1.34l-14.14,8.17Z"/><path class="cls-22" d="m365.36,362.81c-.51.3-1.54.18-2.32-.27l-43.14-24.9c-.77-.44-.99-1.04-.48-1.34l14.15-8.17c.5-.29,1.54-.17,2.31.28l43.14,24.9c.78.45.98,1.05.48,1.34l-14.15,8.17Z"/><path class="cls-22" d="m331.51,365.77c-.51.29-1.55.17-2.32-.27l-28.77-16.6c-.77-.44-.98-1.05-.47-1.34l14.14-8.17c.51-.29,1.55-.17,2.32.27l28.77,16.6c.77.44.98,1.05.47,1.34l-14.14,8.17Z"/><path class="cls-22" d="m411.89,344.69c-.51.29-1.55.18-2.33-.27l-21.33-12.31c-.77-.44-.98-1.05-.47-1.34l14.14-8.17c.51-.3,1.55-.17,2.32.27l21.33,12.31c.78.45.99,1.05.47,1.34l-14.14,8.17Z"/><path class="cls-22" d="m441.15,361.56c-.51.29-1.56.17-2.32-.27l-21.34-12.32c-.76-.44-.98-1.05-.47-1.34l14.14-8.17c.51-.3,1.56-.17,2.32.27l21.34,12.32c.77.44.98,1.05.47,1.34l-14.14,8.17Z"/><path class="cls-22" d="m470.53,378.51c-.51.29-1.54.18-2.31-.26l-21.34-12.32c-.76-.44-.97-1.04-.46-1.34l14.14-8.17c.51-.3,1.55-.17,2.32.27l21.34,12.32c.77.45.97,1.04.46,1.34l-14.14,8.17Z"/><path class="cls-22" d="m499.93,395.48c-.51.29-1.56.17-2.32-.27l-21.33-12.31c-.77-.45-.98-1.05-.47-1.34l14.14-8.17c.51-.3,1.55-.17,2.32.27l21.33,12.31c.77.44.98,1.04.47,1.34l-14.14,8.17Z"/><path class="cls-22" d="m529.31,412.43c-.51.29-1.54.18-2.31-.26l-21.34-12.31c-.77-.45-.98-1.05-.47-1.34l14.14-8.17c.51-.3,1.55-.17,2.32.27l21.34,12.31c.77.45.97,1.04.46,1.33l-14.14,8.17Z"/><path class="cls-22" d="m558.71,429.38c-.51.29-1.56.17-2.31-.27l-21.35-12.32c-.76-.44-.97-1.04-.46-1.33l14.14-8.17c.51-.3,1.55-.18,2.31.26l21.35,12.32c.76.44.97,1.04.46,1.34l-14.14,8.17Z"/><path class="cls-22" d="m588.1,446.34c-.51.29-1.55.17-2.32-.27l-21.34-12.32c-.77-.45-.99-1.05-.47-1.34l14.14-8.17c.51-.3,1.56-.17,2.33.27l21.34,12.32c.77.44.98,1.04.47,1.34l-14.14,8.17Z"/><path class="cls-22" d="m617.48,463.3c-.51.29-1.55.18-2.31-.26l-21.36-12.33c-.76-.44-.97-1.04-.46-1.33l14.14-8.17c.51-.3,1.55-.18,2.31.26l21.36,12.33c.76.44.97,1.04.46,1.33l-14.14,8.17Z"/><path class="cls-22" d="m634.57,478.25c-.35-.2-.79-.36-1.25-.41-.45-.05-.81,0-1.05.14l-14.14,8.17c-.24.14-.35.35-.26.61.1.26.35.52.71.72l5.57,3.22-18.55,10.71c-.24.14-.33.36-.24.62.09.26.36.51.72.72l14.38,8.3c.36.21.8.36,1.26.42.45.06.83,0,1.07-.14l33.62-19.42c.24-.14.33-.35.24-.61-.09-.27-.36-.52-.72-.73l-21.34-12.32Z"/><path class="cls-22" d="m327.69,358.88s-.13,0-.22-.06l-16.32-9.42c-.09-.05-.14-.11-.11-.13l1.03-.6s.13.01.22.06l16.32,9.42c.09.05.14.11.11.13l-1.03.6Z"/><path class="cls-45" d="m397.37,153.71c10.68-9.52,12.58-17.94,15.89-25.86l-7.46-1.34s-7.04,13.23-14.07,12.06c-7.03-1.18-5.18,24.79,5.64,15.14Z"/><path class="cls-45" d="m407.93,131.07h0c-2.4-.74-3.76-3.3-3.02-5.7l1.93-6.3c.74-2.4,3.3-3.76,5.7-3.02h0c2.4.74,3.76,3.3,3.02,5.7l-1.93,6.3c-.74,2.4-3.3,3.76-5.7,3.02Z"/><path class="cls-31" d="m470.77,126.55l-.42-.24c-1.47-.84-3.17.35-3.78,2.65l-7.7,28.8-45.89-26.16,7.7-28.8c.61-2.29-.09-4.85-1.55-5.68l-.42-.24c-1.47-.84-3.17.35-3.78,2.65l-8.33,31.14h0s-.81,3.03-.81,3.03h0s-9.97,37.29-9.97,37.29h0s-.6,2.23-.6,2.23l-10.19,38.09h0l-.04.15-11.14,41.65-.42,1.56h0s-9.97,37.29-9.97,37.29h0s-.81,3.03-.81,3.03h0l-10.44,39.02c-.61,2.29.09,4.85,1.55,5.68l.42.24c1.47.84,3.17-.35,3.78-2.65l9.81-36.67,45.89,26.16-9.81,36.67c-.61,2.29.09,4.85,1.55,5.68l.42.24c1.47.84,3.17-.35,3.78-2.65l62.71-234.49c.61-2.29-.09-4.85-1.55-5.68Zm-13.96,38.93l-8.72,32.6-45.89-26.16,8.72-32.59,45.89,26.16Zm-19.5,72.92l-45.89-26.16,8.72-32.6,45.89,26.16-8.72,32.6Zm-10.78,40.32l-45.89-26.16,8.72-32.59,45.89,26.16-8.72,32.59Zm-56.67,14.16l8.72-32.6,45.89,26.16-8.72,32.6-45.89-26.16Z"/><path class="cls-1" d="m406.06,267.73l5.83,2.11c4.51.21,6.87-.16,8.02,1.62l.33.5c1.15,1.78.09,3.33-2.35,3.46l-11.32,2.28c-2.44.12-4.81-1.52-5.63-3.61,0,0-.49-1.27,1.91-4.37,1.36-1.76,1.27-1.9,3.23-2Z"/><path class="cls-45" d="m409.85,270.5c-.42,2.55-6.62,1.54-6.21-1.01l1.35-8.29,6.21,1.01-1.35,8.29Z"/><path class="cls-1" d="m373.38,294.27l6.03,1.44c4.51-.3,6.8-.93,8.15.7l.38.46c1.34,1.64.47,3.3-1.94,3.7l-10.99,3.54c-2.41.4-4.95-.97-6.01-2.95,0,0-.63-1.21,1.4-4.55,1.16-1.91,1.05-2.03,2.98-2.35Z"/><path class="cls-45" d="m377.46,296.59c-.13,2.58-6.41,2.28-6.28-.3l.41-8.39,6.28.3-.41,8.39Z"/><path class="cls-7" d="m408.31,200.23l17.24,19.84c3.57,4.11,4.5,9.89,2.39,14.91l-14.22,33.84c-1.69,1.7-11.59-.04-10.18-5.37l9.72-33.22-31.04-19.52,26.08-10.48Z"/><path class="cls-7" d="m389.57,214.08l-9.76,75.59c0,4.36-9.96,4.36-9.96,0l-3.62-78.16,23.34,2.57Z"/><path class="cls-45" d="m386.15,144.39l-.72-.2c-2.44-.68-3.78-3.22-2.96-5.66l4.61-13.73c.82-2.44,3.48-3.88,5.93-3.2l.72.2c2.44.68,3.78,3.22,2.96,5.66l-2.48,13.73c-.82,2.44-5.61,3.87-8.06,3.2Z"/><path class="cls-49" d="m365.5,207.36c-.49-10.25-1.04-13.52-1.44-29.68.31-15.53.17-24.81,1.58-32.64,1.53-8.47,7.2-12.94,14.17-11.75,0,0,5.39,1.31,7.17,1.98,18.81,7.18,21.44,4.63,23.81,25.91l-2.48,39.05c12.39,13.85-41,34.52-42.8,7.13Z"/><path class="cls-1" d="m397.91,156.94l7.79,21.49c2.82,7.7,3.81,10.88,3.81,10.88l.89-18.3-12.49-14.07Z"/><path class="cls-45" d="m405.07,163.35l14.34,16.34c.14.14.27.3.41.49,2.64,3.59,7.97,3.7,10.8.27l15.42-18.7-5.21-4.55-15.13,9.07-18.6-19.05-2.03,16.13Z"/><path class="cls-49" d="m402.95,163.79l9.5,10.12c3.81,3.48,14.13-10.48,11.55-12.56-.46-.37-16.03-19.27-21.99-20.25-9.05-1.48-7.78,14.24.94,22.7Z"/><path class="cls-27" d="m379.81,133.29s-.08,5.39,5.33,7.32c5.41,1.92,11.27-1.94,11.27-1.94,0,0-10.09-5.15-16.61-5.38Z"/><path class="cls-45" d="m441.4,160.88h0c-1.32-2.14-.65-4.96,1.49-6.28l5.61-3.46c2.14-1.32,4.96-.65,6.28,1.49h0c1.32,2.14.65,4.96-1.49,6.28l-5.61,3.46c-2.14,1.32-4.96.65-6.28-1.49Z"/><path class="cls-45" d="m403.87,123.03c.1,8.85-9.2,9.47-14.22,5.45-5.02-4.02-7.31-11.87-6.19-19.16,1.12-7.29,9.75-11.5,14.77-7.48,5.02,4.02,5.56,13.77,5.64,21.19Z"/><path class="cls-29" d="m380.19,127.08s2.21,4.95,7.09,4.81c6.87-.2,2.89-16.58,9.87-19.41,3.64-1.47,6.34-6.54,2.97-9.68-3.38-3.15-6.05-3.72-13.13-1.33-6.18,2.09-18.4,7-6.81,25.61Z"/><path class="cls-45" d="m395.19,121.94c-.69,1.66-2.58,2.45-4.24,1.76-1.66-.69-2.45-2.58-1.76-4.24s2.58-2.45,4.24-1.76c1.66.69,2.45,2.58,1.76,4.24Z"/><path class="cls-29" d="m403.56,108.08c.26,2.06-1.19,3.95-3.26,4.21-2.06.26-3.95-1.19-4.21-3.26-.26-2.06,1.19-3.95,3.26-4.21,2.06-.26,3.95,1.19,4.21,3.26Z"/><path class="cls-29" d="m402.97,103.48c.26,2.06-1.19,3.95-3.26,4.21-2.06.26-3.95-1.19-4.21-3.26-.26-2.06,1.19-3.95,3.26-4.21,2.06-.26,3.95,1.19,4.21,3.26Z"/><path class="cls-40" d="m395.77,132.1l-2.56-3.74s2.88,2.89,5.43,2.22c0,0-2.13.47-2.86,1.52Z"/><g class="cls-51"><path class="cls-37" d="m752.75,229.82s21.99-11.89,16.47-25.77c-5.52-13.88-28.28,19.04-28.28,19.04l11.81,6.73Z"/></g><path class="cls-7" d="m731.29,209.96c1.93,0,40.64,13.81,40.61-17.91-.04-31.72-49.42,4.5-49.42,4.5l8.81,13.42Z"/><path class="cls-27" d="m686.72,278.66l12.7-12.77c1.71-1.01,5.59-1.48,8.23-1.17,1.19.14,2.1,1.11,2.2,2.29l.22,2.54c.45,3.65.13,4.19-2.13,5.52l-13.43,7.9c-2.26,1.33-5.74,1.52-7.73.42l-.56-.31c-1.99-1.1-1.77-3.09.5-4.42Z"/><path class="cls-16" d="m708.9,266.39c0,3.76-9.24,3.76-9.24,0v-12.22h9.24v12.22Z"/><path class="cls-27" d="m711.11,292.16l11-14.23c1.57-1.21,5.36-2.15,8.02-2.17,1.19,0,2.22.84,2.47,2l.54,2.49c.91,3.57.65,4.14-1.43,5.74l-12.33,9.49c-2.08,1.6-5.5,2.21-7.61,1.36l-.6-.24c-2.11-.85-2.14-2.85-.06-4.45Z"/><path class="cls-16" d="m731.59,277.26c.47,3.73-8.7,4.87-9.17,1.14l-1.53-12.13,9.17-1.14,1.53,12.13Z"/><path class="cls-7" d="m729.47,181.02s-28.62,14.49-29.81,22.03c-1.05,6.62-2.2,45.83-1.53,55.05.1,1.32.88,2.5,2.09,3.07,2.83,1.33,7.96,2.8,9.67-2.92,2.41-8.06,1.58-35.6,7.35-43.49,5.77-7.88,34.4-19,34.4-19l-22.16-14.74Z"/><path class="cls-7" d="m748.68,194.17s-32.02,15.79-32.96,22.98c-.82,6.27,3.13,41.98,4.15,50.96.16,1.38,1.07,2.55,2.38,3.06,2.91,1.14,7.93,2.2,9.42-3.17,2.14-7.72.37-33.76,5.89-41.43,2.99-4.16,10.68-8.86,23.81-14.99,6-2.8,10.3-14.48,3.01-15.4l-15.7-1.99Z"/><path class="cls-45" d="m720.91,137.03l-6.11,23.16c-.53,2.75-1.47,6.77-2.16,11.48-1.06,7.32,1.06,15.29,5.59,20.79,0,0,2.17-11.34,4.33-16.68,3.78-9.37,6.89-20.41,6.88-20.78-.02-.6-8.54-17.98-8.54-17.98Z"/><path class="cls-16" d="m729.96,121.3l-14.36,24.41c1.96,7.76,6.21,11.71,11.58,13.79l4.56-30.17-1.78-8.04Z"/><path class="cls-27" d="m734.06,156.01c-.23,0-.46-.04-.69-.11-13.73-4.65-16.43-12.13-16.53-12.45-.38-1.12.22-2.34,1.34-2.73,1.11-.38,2.32.2,2.72,1.31.06.16,2.44,5.93,13.86,9.8,1.12.38,1.73,1.6,1.35,2.72-.3.9-1.14,1.46-2.03,1.46Z"/><path class="cls-16" d="m725.65,179.89c2.21-12.01,1.73-19.34-.27-35.93,0-22.96,7.07-31.5,21.68-26.22l6.04,1.59c17.64,9.4,26.6,8.93,23.45,27.41l-3.09,40.5c0,20.85-48.93,17.16-47.81-7.35Z"/><path class="cls-43" d="m744.77,117.91s2.31,2.11,3.47,2.35,13.71-9.79,9.17-21.03c-2.87-7.12-16.48-1.54-16.48-1.54l3.83,20.23Z"/><path class="cls-45" d="m748.91,127.74l-.7.12c-2.37.4-4.64-1.19-5.04-3.54l-2.27-13.22c-.4-2.34,1.21-4.59,3.58-4.99l.7-.12c2.37-.4,4.64,1.19,5.04,3.54l4.07,12.39c.4,2.34-3.01,5.42-5.37,5.82Z"/><path class="cls-40" d="m742.43,120s5.74.12,9.48-5.32c0,0-3.61,8.3-8.85,9.01l-.63-3.7Z"/><ellipse class="cls-45" cx="739.05" cy="106.64" rx="7.72" ry="13.49" transform="translate(-6.16 153.8) rotate(-11.83)"/><path class="cls-45" d="m753.17,110.98c-1.33,6.31-7.86,9.04-12.1,5.29-4.24-3.75-6.6-11.91-5.27-18.22,1.33-6.31,5.85-8.39,10.09-4.65,4.24,3.75,8.61,11.26,7.28,17.57Z"/><path class="cls-43" d="m743.79,97.74s.65,11.95,10.48,13c0,0,9.55-7.82-.15-17.8-8.55-8.8-18.24.6-18.24.6l7.9,4.2Z"/><path class="cls-42" d="m731.02,102.86s2.41-4.67,9.01-5.36l-4.14-3.95s-5.18-.03-4.87,9.31Z"/><path class="cls-43" d="m749.87,103.8c-2.67-2.54-7.44-1.53-13.85,2.25-6.26,1.44-8.36-5.57-8.36-5.57-1.66-3.65.6-5.8,4.29-7.44l9.6-4.27c5.43-2.45,11.72,1.25,13.38,4.9l.37.58c1.66,3.65-1.75,7.9-5.44,9.54Z"/><path class="cls-45" d="m754.98,112.4c-.32,1.54-1.84,2.52-3.4,2.2-1.55-.32-2.55-1.82-2.22-3.36.32-1.54,1.84-2.52,3.4-2.2s2.55,1.82,2.22,3.36Z"/><path class="cls-27" d="m742.43,120s-4.85,6.7,1.99,9.58c10.83,4.56,14.2-7.57,12.51-8.28l-3.42-1.75s2.36,3.34-1.08,6.21c-2.55,2.12-7.13,2.58-9.09-.74l-.9-5.02Z"/><polygon class="cls-6" points="760.88 143.97 760.88 183.29 768.21 179.03 760.88 143.97"/><path class="cls-20" d="m752.97,198.56l-3.39-1.18-.4-.4-.26-.45-25.54-13.14c-.31-.16-.82-.14-1.13.04l-9.75,5.66-.02-.16-1.84.73.08.75h.01c.03.07.1.14.2.19l26.58,13.67s.06.05.07.1c.56,2.01,1.48,3.82,3.22,2.77l10.8-6.3c.86-.47,1.37-1.33,1.36-2.3h0Z"/><path class="cls-44" d="m738.62,206.38l-30.6-15.75c-.35-.18-.35-.5.02-.71l13.01-7.55c.36-.21.95-.23,1.3-.05l30.6,15.75c.35.18.35.5-.02.71l-13.01,7.55c-.36.21-.95.23-1.3.05Z"/><path class="cls-39" d="m739.47,196.23l-7.41-3.81c-.09-.04-.08-.12,0-.17l3.15-1.83c.09-.05.23-.06.32-.01l7.41,3.81c.09.04.08.12,0,.17l-3.15,1.83c-.09.05-.23.06-.32.01Z"/><path class="cls-27" d="m735.93,188.65c-.2-.72-.89-1.57-1.54-1.9l-30.36-15.39c-.27-.14-.49-.16-.64-.1h0s0,0,0,0c-.05.02-.1.06-.14.11l-.85.94.85-.07,4.55,16.64c.2.72.89,1.57,1.54,1.9l28.71,14.55.98.93.13.23c.56.11,1.78-.77,1.78-.77l-5.01-17.08Z"/><path class="cls-18" d="m738.8,207.18s-31.7-16.57-31.9-17.29l-4.6-16.82c-.2-.72.17-1.03.83-.7l30.36,15.39c.65.33,1.34,1.18,1.54,1.9l4.6,16.82c.2.72-.17,1.03-.83.7Z"/><path class="cls-27" d="m721.78,190.89c.24.89-.59,1.09-1.87.45-1.28-.65-2.51-1.9-2.75-2.79-.24-.89.59-1.09,1.87-.45,1.28.65,2.51,1.9,2.75,2.79Z"/><path class="cls-45" d="m762.08,143.97l4.02,35.24c.16,1.89-29.13,11.17-29.13,11.17l2.47,10.21,29.95-7.59c7.92-3.28,7.71-9.28,7.62-14.2l-.55-30.54-14.38-4.31Z"/><path class="cls-16" d="m761.19,147.82l2.53,26.1c.75,2.16,20.45-2.3,19.67-5.52-.14-.57-2.17-31.85-11.01-38.99-7.18-5.8-12.94,6.37-11.19,18.41Z"/><path class="cls-27" d="m766.59,169.43c-2.07,0-3.33-.31-3.47-.34-1.15-.29-1.84-1.46-1.55-2.61.29-1.14,1.46-1.84,2.6-1.55.33.08,7.44,1.67,16.5-4.92.96-.7,2.3-.49,3,.47.7.96.49,2.3-.47,3-6.88,5-12.99,5.95-16.61,5.95Z"/><path class="cls-41" d="m529.21,431.06c-.25-2.83,1.94-5.28,4.78-5.36,4.03-.12,9.31,1.09,11.45,7.63,3.69,11.23-2.25,16.56,3.48,23.73,5.74,7.17,11.74,25.38,2.18,27.85-9.56,2.47-14.68-1.63-13.66-9.21,1.02-7.58,2.29-8.57-2.21-14.66-3.38-4.57-5.29-21.73-6.03-29.98Z"/><path class="cls-21" d="m458.21,634.86l15.38-12.63c1.99-.91,6.28-.98,9.14-.33,1.28.29,2.16,1.47,2.14,2.78l-.05,2.83c.06,4.09-.35,4.64-2.98,5.85l-15.61,7.17c-2.63,1.21-6.45,1.01-8.49-.44l-.58-.41c-2.04-1.45-1.57-3.62,1.06-4.83Z"/><path class="cls-45" d="m509.54,535.79s-33.43,18.08-34.75,26.46c-1.15,7.36-.04,50.26-.04,60.52,0,6.38,9.39,4.61,9.24-.01-.31-9.33,2.6-41.66,8.94-50.42,6.34-8.76,37.82-21.11,37.82-21.11l-21.21-15.43Z"/><path class="cls-21" d="m441.55,625.57l15.38-12.63c1.99-.91,6.28-.98,9.14-.33,1.28.29,2.16,1.47,2.14,2.78l-.05,2.83c.06,4.09-.35,4.64-2.98,5.85l-15.61,7.17c-2.63,1.21-6.45,1.01-8.49-.44l-.58-.41c-2.04-1.45-1.57-3.62,1.06-4.83Z"/><path class="cls-45" d="m492.88,526.5s-31.48,17.39-32.8,25.76c-1.15,7.36-1.99,50.95-1.99,61.22,0,6.38,9.39,4.61,9.24-.01-.31-9.33,2.6-41.66,8.94-50.42,6.34-8.76,37.82-21.11,37.82-21.11l-21.21-15.43Z"/><path class="cls-21" d="m502.64,515.51c-12.36,13.42-34.64,16.03-44.52,32.3-4.77,7.85,27.96,8.35,36,24.26,0,0,31.01-15.85,39.84-21.76,1.76-1.18,3.25-2.7,4.32-4.52,2.65-4.51,6.18-13.93,1.99-28.44-6.12-21.2-37.63-1.84-37.63-1.84Z"/><path class="cls-33" d="m501.91,515.55c-.76-13.31.38-18.82-.55-35.24,1.22-19.61,1.56-25.02,16.85-25.53l4.01,1.34c1.91.64,3.76,1.49,5.49,2.52,18.5,11.04,22.31,13.41,20.76,24.77-.34,5.89-4.67-.7-4.42,3.25.31,4.99,3.35,16.13-.21,35.3-.5,2.71-1.24,6.7-3.54,8.23-9.94,6.62-35.13-6.4-38.39-14.64Z"/><path class="cls-27" d="m519.63,463.76c-.39,3.25.13,5.46,5.54,6.58,4.68.97,10.78-6.38,8.34-8.55-2.24-2-1.87-1.25-6.5-2.43s-6.71-1.16-7.37,4.41Z"/><path class="cls-41" d="m521.87,458.27s2.67,2.2,3.97,2.4c1.3.2,14.47-11.74,8.77-23.96-3.61-7.74-18.23-.69-18.23-.69l5.49,22.26Z"/><path class="cls-45" d="m526.82,468.45l-.66.15c-2.24.51-4.48-.9-4.99-3.13l-2.88-12.6c-.51-2.24.9-4.48,3.13-4.99l.66-.15c2.24-.51,4.48.9,4.99,3.13l4.55,11.7c.51,2.24-2.57,5.38-4.8,5.89Z"/><path class="cls-40" d="m519.81,460.23s5.47-.19,8.74-5.63c0,0-2.99,8.19-7.93,9.15l-.81-3.52Z"/><path class="cls-45" d="m521.56,430.94c-3.36-2.68-6.69-2.3-8.8.5-3.28-.29-6,2.47-6.77,7.58-1.07,7.11,2.04,16.03,6.94,19.94,3.42,2.73,6.81,2.28,8.91-.66,4.02.22,8.04-3.01,8.83-8.25,1.07-7.11-4.22-15.19-9.12-19.09Z"/><path class="cls-41" d="m519.52,435.89s1.47,13.25,12.36,13.81c0,0,10.02-9.29-1.28-19.79-9.96-9.26-20.03,1.8-20.03,1.8l8.96,4.18Z"/><path class="cls-41" d="m526.6,442.26c-3.1-2.66-13.49-.06-20.3,4.54-3.68,1.08-3.84-2.4-2.57-6.51,1.58-5.12,5.09-9.42,9.63-12.27l3.14-1.97c5.82-3.06,15.15,3.47,17.2,7.43l-4.07,1.24c2.05,3.96.92,5.48-3.04,7.53Z"/><circle class="cls-45" cx="529.63" cy="451.03" r="3.16" transform="translate(-28.14 866.76) rotate(-77.12)"/><path class="cls-27" d="m512.66,453.61l6.45.71s-1.53,4.09-3.38,3.52c-1.85-.57-3.07-4.23-3.07-4.23Z"/><path class="cls-45" d="m493.31,478.13l-3.79,22.87c-.58,3.06,1.78,17.5,3.35,25.5,1.59,8.06,2.4,1.52,7.38,7.63l-2.58-23.47c-.31-2.87-.13-5.76.56-8.56,1.55-6.33,4.28-17.59,4.28-17.89-.02-.67-9.2-6.08-9.2-6.08Z"/><path class="cls-20" d="m520.46,536.69l-3.73-1.31-.44-.44-.28-.5-28.07-14.6c-.34-.18-.9-.15-1.24.05l-10.72,6.29-.02-.17-2.02.81.09.83h.01c.04.08.11.16.22.22l29.21,15.19s.06.06.08.11c.61,2.24,1.63,4.24,3.54,3.08l11.87-7c.94-.52,1.5-1.47,1.49-2.55h0Z"/><path class="cls-44" d="m504.68,545.37l-33.64-17.49c-.39-.2-.38-.56.02-.79l14.3-8.38c.4-.23,1.04-.26,1.43-.06l33.64,17.49c.39.2.38.56-.02.79l-14.3,8.38c-.4.23-1.04.26-1.43.06Z"/><path class="cls-39" d="m505.62,534.1l-8.14-4.23c-.09-.05-.09-.14,0-.19l3.46-2.03c.1-.06.25-.06.35-.01l8.14,4.23c.09.05.09.14,0,.19l-3.46,2.03c-.1.06-.25.06-.35.01Z"/><path class="cls-27" d="m501.73,525.68c-.22-.8-.97-1.74-1.69-2.11l-33.37-17.1c-.3-.15-.54-.18-.71-.11h0s0,0,0,0c-.06.03-.11.07-.15.12l-.93,1.05.94-.08,5.01,18.49c.22.8.97,1.74,1.69,2.11l31.55,16.17,1.07,1.03.15.25c.62.12,1.95-.85,1.95-.85l-5.51-18.97Z"/><path class="cls-18" d="m504.88,546.26s-34.85-18.41-35.06-19.21l-5.06-18.69c-.22-.8.19-1.15.91-.78l33.37,17.1c.72.37,1.48,1.31,1.69,2.11l5.06,18.69c.22.8-.19,1.15-.91.78Z"/><path class="cls-27" d="m486.17,528.17c.27.99-.65,1.22-2.05.5s-2.76-2.11-3.03-3.1c-.27-.99.65-1.22,2.05-.5s2.76,2.11,3.03,3.1Z"/><path class="cls-45" d="m537.98,480.22l-5.2,31.61c.05,1.96-29.32,18.56-29.32,18.56l1.26,4.9,30.37-12.65c9.49-4.32,9.59-12.87,9.84-18.03l2.21-26.42-9.16,2.03Z"/><path class="cls-33" d="m549.26,487.89l-2.61,19.97c-.65,1.68-16.33-.77-15.63-3.26.12-.44,2.46-24.32,9.7-30.18,5.88-4.76,10.22,4.23,8.55,13.47Z"/><path class="cls-33" d="m510.56,482.4l-4.61,8.94c-.99,1.5-15.79-4.22-14.58-6.51.21-.4,7.58-23.24,15.9-27.42,6.76-3.4,6.89,16.32,3.29,24.99Z"/><path class="cls-7" d="m235.26,295.35c-4.02,8.03-10.57,24-19.13,27.04-11.85,4.21-24.23-10.04-33.73-17.2-4.25-3.21-.08-10.48,4.23-7.23,7.69,5.8,17.42,10.88,27.15,7.24,6.51-2.43,11.21-8.02,14.24-14.08,2.42-4.82,9.65-.58,7.23,4.23h0Z"/><path class="cls-45" d="m181.66,303.02l-3.6-2.19c-1.87-1.14-2.47-3.6-1.33-5.48h0c1.14-1.87,3.6-2.47,5.48-1.33l3.6,2.19c1.87,1.14,2.47,3.6,1.33,5.48h0c-1.14,1.87-3.6,2.47-5.48,1.33Z"/><path class="cls-25" d="m202.44,280.35c4.08-2.74,3.77-7.22,3.77-7.22l.03-.02-.18-1.43c-4.62,1.11-7.44,5.18-7.44,5.18,0,0-.27,6.23,3.81,3.49Zm-3.03-3.21s2.26-3.23,5.8-4.03l.07,1.11s.23,3.33-2.81,5.36c-3.04,2.04-3.06-2.45-3.06-2.45Z"/><path class="cls-25" d="m178.42,363.92c1.21-11.36,5.83-19.26,19.22-20.25.84-.06,1.69.08,2.48.38l46.7,13.9s10.21,25.34-14.84,33.01c-12.67,3.88-37.28-8.97-48.47-16.28-3.58-2.34-5.54-6.51-5.09-10.76Z"/><path class="cls-45" d="m205.12,282.73c3.4,6.4,11.22,7.32,14.57,1.96s3.31-14.89-.08-21.28c-3.4-6.4-8.87-7.24-12.22-1.89-3.35,5.36-5.67,14.81-2.27,21.21Z"/><path class="cls-45" d="m225.8,298.89l.7-.32c2.35-1.07,3.39-3.87,2.32-6.22l-6.05-13.25c-1.07-2.35-3.87-3.39-6.22-2.32l-.7.32c-2.35,1.07-3.39,3.87-2.32,6.22l3.94,13.59c1.07,2.35,5.98,3.06,8.33,1.99Z"/><path class="cls-43" d="m227.68,278.98s1.85,4.54-6.3,6.75c-6.52,1.76-7.09-10.58-13.85-10.26-7.44.35-10.63-8.26-8.52-12.27,2.11-4.01,9.66-7.47,15.93-6.16,6.27,1.32,18.72.61,12.74,21.95Z"/><path class="cls-7" d="m246.82,357.95c-1.07-10.95-5.36-11.27-4.28-25.58.29-3.82.39-7.65.35-11.48-.23-20.88-1.93-35.06-13.72-31.67l-3.72.99c-1.78.47-3.52,1.15-5.16,1.99-17.38,8.96-26.07,9.31-22.82,28.52.7,19.03,9.35,14.93,5.73,33.83,0,22.65,43.65,17.54,43.63,3.4Z"/><path class="cls-15" d="m200.11,334.73l9.47-20.66c.73,11.83-.24,22.43-5.67,29.81l-3.8-9.15Z"/><path class="cls-40" d="m214.9,288.05l.38-1.87s-1.04,1.6-3.61,1.81c0,0,1.66.53,3.23.06Z"/><path class="cls-43" d="m213.59,279.66s4.42,4.64,5.07,10.41c.8,7.13,5.38,11.5,11.42,7.62,3-1.93,5.59-4.1,5.4-6.25-1.67-18.34-7.71-28.71-7.71-28.71l-14.18,16.94Z"/><path class="cls-7" d="m209.59,310.43s-2.13,44.05-25.4,29.8c-14.54-8.9-13.06-34.53-13.06-34.53l6.41-1s7.01,27.65,14.36,23.53c7.35-4.11,5.51-24,9.15-25.52,3.64-1.52,8.54,7.72,8.54,7.72Z"/><path class="cls-45" d="m175.7,311h0c1.97-.68,3.03-2.84,2.35-4.81l-2.91-8.45c-.68-1.97-2.84-3.03-4.81-2.35h0c-1.97.68-3.03,2.84-2.35,4.81l2.91,8.45c.68,1.97,2.84,3.03,4.81,2.35Z"/><path class="cls-22" d="m175.81,310.6l9.08-6.77c.54-.39.7-1.27.36-1.96l-8.9-18.05c-.34-.69-1.05-.93-1.6-.53l-9.03,6.59c-.54.39-.7,1.27-.36,1.96l8.86,17.97c.22.45.45.51.91.62l.67.18Z"/><path class="cls-28" d="m174.76,292.34s10.83,10.21,10.49,9.52l-8.91-18.68-.85-.09c-.25-.05-.51,0-.74.17l-9.03,6.59c-.26.19-.44.5-.51.85l9.54,1.63Z"/><path class="cls-18" d="m176.73,310.49l9-6.58c.54-.39.68-1.27.34-1.96l-8.9-18.05c-.34-.69-1.04-.93-1.58-.54l-9,6.58c-.54.39-.67,1.27-.33,1.96l8.9,18.05c.34.69,1.03.93,1.57.54Z"/><path class="cls-48" d="m166.62,293.33l.51,1.03c.04.07,0,.11-.09.09h.01c-.09-.03-.15-.11-.19-.19l-.51-1.03c-.04-.07-.03-.11.06-.09h0c.09.03.17.11.2.18Z"/><path class="cls-48" d="m167.51,295.14l.51,1.03c.04.07,0,.11-.09.09h.01c-.09-.03-.15-.11-.19-.19l-.51-1.03c-.04-.07-.03-.11.06-.09h0c.09.03.17.11.2.18Z"/><path class="cls-38" d="m175.32,307.51l8.87-6.47-7.8-15.93-8.81,6.43,7.88,15.51c.07.13-.25.55-.13.46Z"/><path class="cls-27" d="m170.05,288.87l2.79-2.03c.1-.07.13-.23.07-.36h0c-.06-.12-.19-.17-.29-.1l-2.79,2.03c-.1.07-.13.23-.07.36h0c.06.12.19.17.29.1Z"/><path class="cls-25" d="m198.83,277.84l10.4-1.62c.37-.06.63-.41.57-.78h0c-.06-.37-.41-.63-.78-.57l-10.4,1.62c-.37.06-.63.41-.57.78h0c.06.37.41.63.78.57Z"/><path class="cls-45" d="m208.28,279.16c.83,1.56,2.76,2.15,4.31,1.32s2.15-2.76,1.32-4.31c-.83-1.56-2.76-2.15-4.31-1.32-1.56.83-2.15,2.76-1.32,4.31Z"/><path class="cls-34" d="m171.28,295.44c1.02,1.74,2.75,3.5,4.55,2.82.36-.13.7-.32,1.04-.56,2.01-1.45,2.65-4.31,1.44-6.4-.66-1.12-1.72-1.79-2.88-1.94-.99-.13-1.88.87-2.8,1.54-2.01,1.45-2.55,2.45-1.33,4.54Zm.76,1.08c-.82-1.4-.35-5.04,1-6.01.64-.46,1.51.26,2.19.36.75.12,1.44.56,1.87,1.29.82,1.4.39,3.32-.96,4.29-.22.16-.45.28-.68.37-1.21.46-2.73.87-3.42-.31Z"/><path class="cls-24" d="m171.02,296.55c-.75-1.28-.79-2.84-.26-4.2l1.27.55c-.35.9-.31,1.94.18,2.79.68,1.16,2,1.59,3.2,1.16l.42,1.41c-1.8.68-3.8.03-4.81-1.71Z"/><path class="cls-27" d="m175.42,289.37l-.22,1.51c-.67-.09-1.39.07-2.02.53-.57.41-.97.99-1.19,1.63l-1.33-.4c.32-.97.93-1.85,1.79-2.47.93-.67,1.98-.92,2.97-.79Z"/><path class="cls-27" d="m176.62,301.78l3.88-2.79c.25-.18.32-.58.14-.89h0c-.18-.31-.53-.41-.79-.22l-3.88,2.79c-.25.18-.32.58-.14.89h0c.18.31.53.41.79.22Z"/><path class="cls-27" d="m177.81,303.68l3.88-2.79c.25-.18.32-.58.14-.89h0c-.18-.31-.54-.41-.79-.22l-3.88,2.79c-.25.18-.32.58-.14.89h0c.18.31.54.41.79.22Z"/><path class="cls-45" d="m172.21,307.96l-1.08-2.26c.87-.02,1.89,3.54,1.87,2.82l-.03-10.06c-.02-.72-.75-1.29-1.62-1.27h0c-.87.02-1.57.63-1.55,1.35l.14,4.97c.02.72,1.41,4.47,2.28,4.45Z"/><path class="cls-10" d="m133.82,546.14l-54.99-30.28c-2.26-1.25-3.16-2.99-2.85-4.85h-.01s.83-10.95.83-10.95c0,0,6.87.14,14.23-1.07l47.43-27.16c6.02-3.45,14.76-4.05,19.47-1.45l44.73,24.72c8.58-.22,14.35-.08,14.35-.08l-.79,10.45h-.01c-.19,2.07-2.14,4.48-5.6,6.22l-57.39,32.86c-6.02,3.45-14.69,4.19-19.4,1.58Z"/><path class="cls-23" d="m214.07,489.61l-55.05-30.42c-4.72-2.61-13.42-1.93-19.44,1.52l-57.39,32.86c-6.02,3.45-7.07,8.35-2.35,10.96l55.05,30.42c4.72,2.61,13.42,1.93,19.44-1.52l57.39-32.86c6.02-3.45,7.07-8.35,2.35-10.96Z"/><polygon class="cls-27" points="148.56 475.04 117.94 476.15 116.39 494.92 122.91 494.64 123.93 482.27 147.98 481.4 148.56 475.04"/><polygon class="cls-27" points="176.21 491.71 169.69 492 168.68 504.19 144.31 505.07 143.74 511.43 174.68 510.31 176.21 491.71"/><polygon class="cls-27" points="169.65 489.12 168.54 483.11 124.95 497.77 126.07 503.78 169.65 489.12"/><path class="cls-24" d="m231.54,603.04l-54.26-29.93c-2.23-1.23-3.13-2.98-2.83-4.81l-.02-.02.88-10.68s6.83.26,14.1-.93l46.77-26.78c5.93-3.4,14.48-4.13,19.14-1.56l44.07,24.32c8.46-.22,14.12-1.2,14.12-1.2l-.66,11.62h-.01c-.18,1.97-2.04,4.14-5.52,6.13l-56.59,32.4c-5.93,3.4-14.55,4-19.2,1.43Z"/><path class="cls-32" d="m310.61,547.17l-54.29-29.99c-4.65-2.57-13.23-1.9-19.17,1.5l-56.59,32.4c-5.93,3.4-6.97,8.24-2.32,10.81l54.29,29.99c4.65,2.57,13.23,1.9,19.17-1.5l56.59-32.4c5.93-3.4,6.97-8.24,2.32-10.81Z"/><path class="cls-27" d="m270.75,569.32l1.7-.97c3.3-1.89,3.54-4.77.53-6.44h0c-2.66-1.47-.46-4.22,3.48-4.37h0c4.46-.16,8.25-2.33,8.46-4.84l.11-1.29c.21-2.51-3.24-4.42-7.71-4.26-3.94.14-5.7-2.47-2.78-4.14,3.3-1.89,3.54-4.77.53-6.43l-1.55-.86c-3.01-1.66-8.13-1.48-11.43.41h0c-2.92,1.67-7.59.73-7.41-1.49h0c.21-2.51-3.24-4.42-7.71-4.26l-2.3.08c-4.46.16-8.25,2.33-8.46,4.84h0c-.18,2.22-5.04,3.5-7.7,2.04-3.01-1.66-8.13-1.48-11.43.41l-1.7.97c-3.3,1.89-3.54,4.77-.53,6.43h0c2.66,1.47.46,4.22-3.48,4.37h0c-4.46.16-8.25,2.33-8.46,4.84l-.11,1.29c-.21,2.51,3.24,4.42,7.71,4.26h0c3.94-.14,5.7,2.47,2.78,4.14h0c-3.3,1.89-3.54,4.77-.53,6.44l1.55.86c3.01,1.66,8.13,1.48,11.43-.41h0c2.92-1.67,7.59-.73,7.41,1.49h0c-.21,2.51,3.24,4.42,7.71,4.26l2.3-.08c4.46-.16,8.25-2.33,8.46-4.84h0c.18-2.22,5.04-3.5,7.7-2.04h0c3.01,1.66,8.13,1.48,11.43-.41Zm-13.31-8.31c-8.2,4.69-20.9,5.15-28.37,1.03-7.47-4.13-6.88-11.28,1.32-15.97,8.2-4.69,20.9-5.15,28.37-1.03,7.47,4.13,6.88,11.28-1.32,15.97Z"/><path class="cls-34" d="m330.56,658.33l-54.31-30.03c-2.23-1.23-3.16-3.03-2.86-4.87l-.03-.04.99-10.48s6.93.46,14.2-.74l46.77-26.78c5.93-3.4,14.38-4.34,19.03-1.77l44.02,24.21c8.47-.22,14.02-.77,14.02-.77l-.39,11.5h-.01c-.54,2.35-2.04,4.14-5.52,6.13l-56.59,32.4c-5.93,3.4-14.66,3.79-19.31,1.22Z"/><path class="cls-19" d="m409.53,602.25l-54.29-29.99c-4.65-2.57-13.23-1.9-19.17,1.5l-56.59,32.4c-5.93,3.4-6.97,8.24-2.32,10.81l54.29,29.99c4.65,2.57,13.23,1.9,19.17-1.5l56.59-32.4c5.93-3.4,6.97-8.24,2.32-10.81Z"/><path class="cls-27" d="m372.78,599.16l3.16,1.75c4.41,2.44,4.55,4.62-1.4,8.02-3.91,2.24-6.45,3.13-9.92,5.11-1.93,1.1-2.91,2.85.24,4.72l-4.73,2.71c-3.37-1.74-6.46-1.15-8.39-.05-3.47,1.99-5,3.43-8.91,5.67-5.95,3.4-9.82,3.37-14.24.93l-3.16-1.75,4.29-2.46.95.53c2.11,1.16,3.48,1,6.51-.74,2.97-1.7,5.41-3.33,8.77-5.25,4.18-2.4,6.98-2.64,10.15-1.64l.22-.13c-1.85-1.76-1.45-3.34,2.73-5.74,3.36-1.92,6.2-3.33,9.18-5.03,3.03-1.73,3.3-2.51,1.2-3.68l-.95-.53,4.29-2.46Z"/><path class="cls-27" d="m352.81,592.96l-.95-.53c-2.11-1.16-3.48-1-6.51.74-2.97,1.7-5.41,3.33-8.77,5.25-4.18,2.4-6.99,2.64-10.15,1.64l-.22.13c1.85,1.76,1.46,3.34-2.73,5.74-3.36,1.92-6.2,3.33-9.18,5.03-3.03,1.73-3.3,2.51-1.2,3.68l.95.53-4.29,2.46-3.16-1.75c-4.41-2.44-4.55-4.62,1.4-8.02,3.91-2.24,6.45-3.13,9.92-5.11,1.93-1.1,2.91-2.85-.24-4.72l4.73-2.71c3.37,1.74,6.46,1.15,8.39.05,3.47-1.99,5-3.43,8.91-5.67,5.95-3.4,9.82-3.37,14.24-.93l3.16,1.75-4.29,2.46Z"/><g class="cls-50"><path class="cls-14" d="m398.65,433.49h0c-3.82-2.21-1.14-5.97,4.25-5.96h0c6.1.01,11.04-2.84,11.02-6.36v-1.81c-.03-3.52-4.99-6.39-11.1-6.4h0c-5.39,0-8.11-3.78-4.31-5.97h0c4.3-2.48,4.28-6.52-.05-9.02l-2.23-1.29c-4.33-2.5-11.33-2.51-15.63-.03h0c-3.8,2.19-10.33.62-10.35-2.49h0c-.02-3.52-4.98-6.39-11.09-6.4h-3.14c-6.1-.02-11.04,2.83-11.02,6.36h0c.02,3.11-6.49,4.66-10.32,2.45h0c-4.33-2.5-11.33-2.51-15.63-.03l-2.21,1.28c-4.3,2.48-4.28,6.52.05,9.02,3.82,2.21,1.14,5.97-4.25,5.96h0c-6.1-.01-11.04,2.84-11.02,6.36v1.81c.03,3.52,4.99,6.39,11.1,6.4h0c5.39,0,8.11,3.78,4.31,5.97h0c-4.3,2.48-4.28,6.52.05,9.02l2.23,1.29c4.33,2.5,11.33,2.51,15.63.03,3.8-2.19,10.33-.62,10.35,2.49.02,3.52,4.98,6.39,11.09,6.4h3.14c6.1.02,11.04-2.83,11.02-6.36h0c-.02-3.11,6.49-4.66,10.32-2.45h0c4.33,2.5,11.33,2.51,15.63.03l2.21-1.28c4.3-2.48,4.28-6.52-.05-9.02Zm-60.22-2.16c-10.75-6.2-10.8-16.23-.12-22.4,10.68-6.17,28.05-6.13,38.79.07,10.75,6.2,10.8,16.23.12,22.4s-28.05,6.13-38.79-.07Z"/></g><path class="cls-8" d="m402.99,414.38v-15.02s-8.7-1.38-8.7-1.38l-3.74-1.79c-.43-1.17-1.43-2.28-3.01-3.19l-2.23-1.29c-.47-.27-.98-.51-1.52-.73l6.64-.31.35-10.08-28.99-3.42-2.79-6.73-24.85.76,3.48,6.51c-6.48.48-14.79,1.11-14.79,1.11l-1.36,1.74c-2.67-.18-18.67-1.35-18.67-1.35v13.09l5.85-1.02c-.18.09-.36.18-.53.28l-2.21,1.28c-1.63.94-2.64,2.11-3.03,3.33l-12.19.8v16.33s.11.02.11.02c-.06.28-.11.57-.11.86v1.81c.03,3.52,4.99,6.39,11.1,6.4h0c.36,0,.71.02,1.05.05l.05,10.29h0c-.05,1.68,1.02,3.37,3.25,4.66l2.23,1.29c4.33,2.5,11.33,2.51,15.63.03,3.8-2.19,10.33-.62,10.35,2.49.02,3.52,4.98,6.39,11.09,6.4h3.14c6.1.02,11.04-2.83,11.02-6.36h0c-.02-3.11,6.49-4.66,10.32-2.45h0c4.33,2.5,11.33,2.51,15.63.03l2.21-1.28c2.68-1.55,3.68-3.7,3.01-5.71h0v-9.21c.38-.04.78-.07,1.19-.06,5.91.01,10.71-2.66,10.99-6.03h.01s0-.18,0-.18c0-.05.01-.1.01-.16v-1.81s-.01-.01-.01-.02Zm-55.38,3.73c-10.75,0-19.46-5.03-19.46-11.23s8.71-11.23,19.46-11.23,19.46,5.03,19.46,11.23-8.71,11.23-19.46,11.23Z"/><path class="cls-27" d="m387.74,411.31h0c-3.82-2.21-1.14-5.97,4.25-5.96h0c6.1.01,11.04-2.84,11.02-6.36v-1.81c-.03-3.52-4.99-6.39-11.1-6.4h0c-5.39,0-8.11-3.78-4.31-5.97h0c4.3-2.48,4.28-6.52-.05-9.02l-2.23-1.29c-4.33-2.5-11.33-2.51-15.63-.03h0c-3.8,2.19-10.33.62-10.35-2.49h0c-.02-3.52-4.98-6.39-11.09-6.4h-3.14c-6.1-.02-11.04,2.83-11.02,6.36h0c.02,3.11-6.49,4.66-10.32,2.45h0c-4.33-2.5-11.33-2.51-15.63-.03l-2.21,1.28c-4.3,2.48-4.28,6.52.05,9.02,3.82,2.21,1.14,5.97-4.25,5.96h0c-6.1-.01-11.04,2.84-11.02,6.36v1.81c.03,3.52,4.99,6.39,11.1,6.4h0c5.39,0,8.11,3.78,4.31,5.97h0c-4.3,2.48-4.28,6.52.05,9.02l2.23,1.29c4.33,2.5,11.33,2.51,15.63.03,3.8-2.19,10.33-.62,10.35,2.49.02,3.52,4.98,6.39,11.09,6.4h3.14c6.1.02,11.04-2.83,11.02-6.36h0c-.02-3.11,6.49-4.66,10.32-2.45h0c4.33,2.5,11.33,2.51,15.63.03l2.21-1.28c4.3-2.48,4.28-6.52-.05-9.02Zm-60.22-2.16c-10.75-6.2-10.8-16.23-.12-22.4,10.68-6.17,28.05-6.13,38.79.07,10.75,6.2,10.8,16.23.12,22.4s-28.05,6.13-38.79-.07Z"/><g class="cls-50"><path class="cls-14" d="m455.65,474.43h0c-2.79-1.61-.83-4.35,3.09-4.34h0c4.45,0,8.04-2.07,8.03-4.63v-1.32c-.02-2.57-3.64-4.66-8.08-4.66h0c-3.93,0-5.91-2.75-3.14-4.35h0c3.13-1.81,3.12-4.75-.04-6.57l-1.62-.94c-3.15-1.82-8.25-1.83-11.39-.02h0c-2.77,1.6-7.53.45-7.54-1.81h0c-.01-2.57-3.63-4.66-8.08-4.66h-2.29c-4.45-.01-8.04,2.06-8.03,4.63h0c.01,2.27-4.73,3.4-7.52,1.79h0c-3.15-1.82-8.25-1.83-11.39-.02l-1.61.93c-3.13,1.81-3.12,4.75.04,6.57,2.79,1.61.83,4.35-3.09,4.34h0c-4.45,0-8.04,2.07-8.03,4.63v1.32c.02,2.57,3.64,4.66,8.09,4.66h0c3.93,0,5.91,2.75,3.14,4.35h0c-3.13,1.81-3.12,4.75.04,6.58l1.62.94c3.15,1.82,8.25,1.83,11.39.02,2.77-1.6,7.53-.45,7.54,1.81.01,2.57,3.63,4.66,8.08,4.66h2.29c4.45.01,8.04-2.06,8.03-4.63h0c-.01-2.27,4.73-3.4,7.52-1.79h0c3.15,1.82,8.25,1.83,11.39.02l1.61-.93c3.14-1.81,3.12-4.75-.04-6.58Zm-43.87-1.58c-7.83-4.52-7.87-11.83-.09-16.32,7.78-4.49,20.43-4.47,28.26.05,7.83,4.52,7.87,11.83.09,16.32-7.78,4.49-20.43,4.47-28.26-.05Z"/></g><path class="cls-8" d="m456.01,460.58v-9.68s-5.6-.89-5.6-.89l-2.41-1.16c-.28-.75-.92-1.47-1.94-2.06l-1.44-.83c-.31-.18-.63-.33-.98-.47l4.28-.2.23-6.5-18.69-2.2-1.8-4.34-16.02.49,2.24,4.2c-4.17.31-9.53.72-9.53.72l-.88,1.12c-1.72-.11-12.03-.87-12.03-.87v8.44l3.77-.66c-.12.06-.23.12-.34.18l-1.43.82c-1.05.61-1.7,1.36-1.95,2.14l-7.86.52v10.53s.07.02.07.02c-.04.18-.07.37-.07.55v1.17c.02,2.27,3.22,4.12,7.15,4.13h0c.23,0,.46.01.68.03l.03,6.63h0c-.03,1.08.66,2.17,2.1,3l1.44.83c2.79,1.61,7.3,1.62,10.07.02,2.45-1.41,6.66-.4,6.67,1.6.01,2.27,3.21,4.12,7.15,4.13h2.03c3.93.01,7.11-1.82,7.1-4.1h0c-.01-2.01,4.19-3,6.65-1.58h0c2.79,1.61,7.3,1.62,10.07.02l1.43-.82c1.73-1,2.37-2.38,1.94-3.68h0v-5.94c.24-.03.5-.04.77-.04,3.81,0,6.9-1.71,7.08-3.88h0s0-.11,0-.11c0-.03,0-.07,0-.1v-1.17s0,0,0-.01Zm-35.69,2.41c-6.93,0-12.54-3.24-12.54-7.24s5.61-7.24,12.54-7.24,12.54,3.24,12.54,7.24-5.61,7.24-12.54,7.24Z"/><path class="cls-27" d="m446.18,458.6h0c-2.47-1.42-.74-3.85,2.74-3.84h0c3.93,0,7.11-1.83,7.1-4.1v-1.17c-.02-2.27-3.22-4.12-7.15-4.13h0c-3.48,0-5.23-2.44-2.78-3.85h0c2.77-1.6,2.76-4.21-.03-5.82l-1.44-.83c-2.79-1.61-7.3-1.62-10.07-.02h0c-2.45,1.41-6.66.4-6.67-1.6h0c-.01-2.27-3.21-4.12-7.15-4.13h-2.02c-3.93-.01-7.11,1.82-7.1,4.1h0c.01,2.01-4.19,3-6.65,1.58h0c-2.79-1.61-7.3-1.62-10.07-.02l-1.43.82c-2.77,1.6-2.76,4.21.03,5.82,2.47,1.42.74,3.85-2.74,3.84h0c-3.93,0-7.11,1.83-7.1,4.1v1.17c.02,2.27,3.22,4.12,7.15,4.13h0c3.48,0,5.23,2.44,2.78,3.85h0c-2.77,1.6-2.76,4.21.03,5.82l1.44.83c2.79,1.61,7.3,1.62,10.07.02,2.45-1.41,6.66-.4,6.67,1.6.01,2.27,3.21,4.12,7.15,4.13h2.03c3.93.01,7.11-1.82,7.1-4.1h0c-.01-2.01,4.19-3,6.65-1.58h0c2.79,1.61,7.3,1.62,10.07.02l1.43-.82c2.77-1.6,2.76-4.21-.03-5.82Zm-38.81-1.39c-6.93-4-6.96-10.46-.08-14.44,6.88-3.97,18.08-3.95,25,.05,6.93,4,6.96,10.46.08,14.44-6.88,3.97-18.08,3.95-25-.05Z"/><path class="cls-30" d="m331.31,197.27l-62.54-38.61c-3.48-2.15-5.65-7.85-4.83-12.74L287.34,5.77c.82-4.88,4.3-7.1,7.78-4.95l62.54,38.61c3.48,2.15,5.65,7.85,4.83,12.74l-23.4,140.16c-.82,4.88-4.3,7.1-7.78,4.95Z"/><path class="cls-46" d="m359.78,68.53l2.73-16.37c.82-4.88-1.35-10.58-4.83-12.74L295.14.82c-3.48-2.15-6.97.07-7.78,4.95l-2.73,16.37,75.15,46.39Z"/><path class="cls-32" d="m310.5,49l-8.05-4.97s-.08-.03-.12-.05l-7.05-4.35c-1.63-1.01-3.27.03-3.65,2.32-.38,2.29.63,4.96,2.27,5.97l8.05,4.97s.08.03.12.05l7.05,4.35c1.63,1.01,3.27-.03,3.65-2.32.38-2.29-.63-4.96-2.27-5.97Z"/><path class="cls-32" d="m292.47,150.17l-8.05-4.97s-.08-.03-.12-.05l-7.05-4.35c-1.63-1.01-3.27.03-3.65,2.32-.38,2.29.63,4.96,2.27,5.97l8.05,4.97s.08.03.12.05l7.05,4.35c1.63,1.01,3.27-.03,3.65-2.32.38-2.29-.63-4.96-2.27-5.97Z"/><path class="cls-27" d="m309.75,79.17l-12.14-7.49c-1.29-.8-2.09-2.91-1.79-4.72h0c.3-1.81,1.6-2.63,2.89-1.84l12.14,7.49c1.29.8,2.09,2.91,1.79,4.72h0c-.3,1.81-1.6,2.63-2.89,1.84Z"/><path class="cls-27" d="m329.89,92.09l-12.14-7.49c-1.29-.8-2.09-2.91-1.79-4.72h0c.3-1.81,1.6-2.63,2.89-1.84l12.14,7.49c1.29.8,2.09,2.91,1.79,4.72h0c-.3,1.81-1.6,2.63-2.89,1.84Z"/><path class="cls-27" d="m311.49,145.07l-12.14-7.49c-1.29-.8-2.09-2.91-1.79-4.72h0c.3-1.81,1.6-2.63,2.89-1.84l12.14,7.49c1.29.8,2.09,2.91,1.79,4.72h0c-.3,1.81-1.6,2.63-2.89,1.84Z"/><path class="cls-9" d="m313.07,123.07l-12.14-7.49c-1.29-.8-2.09-2.91-1.79-4.72h0c.3-1.81,1.6-2.63,2.89-1.84l12.14,7.49c1.29.8,2.09,2.91,1.79,4.72h0c-.3,1.81-1.6,2.63-2.89,1.84Z"/><path class="cls-9" d="m326.5,111.1l-22.31-13.77c-1.29-.8-2.09-2.91-1.79-4.72h0c.3-1.81,1.6-2.63,2.89-1.84l22.31,13.77c1.29.8,2.09,2.91,1.79,4.72h0c-.3,1.81-1.6,2.63-2.89,1.84Z"/><path class="cls-27" d="m299.65,137.73l-12.14-7.49c-1.29-.8-2.09-2.91-1.79-4.72h0c.3-1.81,1.6-2.63,2.89-1.84l12.14,7.49c1.29.8,2.09,2.91,1.79,4.72h0c-.3,1.81-1.6,2.63-2.89,1.84Z"/><path class="cls-9" d="m342.1,115.65c-.15-1.63-.6-2.39-1.66-3.05l-5.81-3.59c-1.29-.8-2.59.02-2.89,1.84-.3,1.81.5,3.93,1.79,4.72l6.02,3.71c2.4,1.93,2.72-2.21,2.55-3.64Z"/><path class="cls-36" d="m300.59,17.24c-.45,2.53-2.49,3.54-4.55,2.27-2.06-1.27-3.37-4.35-2.92-6.88.45-2.53,2.49-3.54,4.55-2.27,2.06,1.27,3.37,4.35,2.92,6.88Z"/><path class="cls-12" d="m321.25,30.62c-.45,2.53-2.49,3.54-4.55,2.27-2.06-1.27-3.37-4.35-2.92-6.88.45-2.53,2.49-3.54,4.55-2.27,2.06,1.27,3.37,4.35,2.92,6.88Z"/><path class="cls-32" d="m310.7,24.02c-.45,2.53-2.49,3.54-4.55,2.27-2.06-1.27-3.37-4.35-2.92-6.88.45-2.53,2.49-3.54,4.55-2.27,2.06,1.27,3.37,4.35,2.92,6.88Z"/><path class="cls-15" d="m334.99,223.82c1.1-6.6-1.48-12.53-6.75-15.55l-81.66-46.81c-4.47-2.56-9.01.63-10.08,7.1l-9.61,57.97c-1.02,6.12,1.37,11.62,6.26,14.42l75,43c6.85,3.92,17.18-1.89,18.6-10.47l8.24-49.66Z"/><path class="cls-47" d="m241.21,220.47s5.44-5.77,13.03-1.74c5.8,3.08,2.5,2.96,9.74,5.03,4.26,1.22,12.52-6.71,22.77-2.12,18.57,8.31,28.54-9.86,35.62-.24l-7.65,46.12-74.65-40.12,1.15-6.93Z"/><path class="cls-27" d="m240.02,228.03s-.04,0-.06,0c-.2-.03-.33-.22-.3-.42l7.64-46.08c.03-.2.22-.33.42-.3.2.03.33.22.3.42l-7.64,46.08c-.03.18-.18.31-.36.31Z"/><path class="cls-27" d="m258.7,237.49s-.04,0-.06,0c-.2-.03-.33-.22-.3-.42l7.64-46.08c.03-.2.22-.33.42-.3.2.03.33.22.3.42l-7.64,46.08c-.03.18-.18.31-.36.31Z"/><path class="cls-27" d="m277.29,247.53s-.04,0-.06,0c-.2-.03-.33-.22-.3-.42l7.64-46.08c.03-.2.22-.33.42-.3.2.03.33.22.3.42l-7.64,46.08c-.03.18-.18.31-.36.31Z"/><path class="cls-27" d="m295.88,257.56s-.04,0-.06,0c-.2-.03-.33-.22-.3-.42l7.64-46.08c.03-.2.22-.33.42-.3.2.03.33.22.3.42l-7.64,46.08c-.03.18-.18.31-.36.31Z"/><path class="cls-27" d="m314.35,268.31s-.04,0-.06,0c-.2-.03-.33-.22-.3-.42l7.64-46.08c.03-.2.22-.33.42-.3.2.03.33.22.3.42l-7.64,46.08c-.03.18-.18.31-.36.31Z"/><path class="cls-27" d="m322.5,217.33l-2.43-1.48c-.27-.16-.43-.62-.37-1.01h0c.06-.39.34-.58.61-.41l2.43,1.48c.27.16.44.62.37,1.01h0c-.06.39-.34.58-.61.41Z"/><path class="cls-27" d="m313.5,270.27l-2.43-1.48s-.02,0-.02-.01l-1.8-1.1c-.27-.16-.54.02-.61.41-.06.39.1.84.37,1.01l2.43,1.48s.02,0,.02.01l1.8,1.1c.27.16.54-.02.61-.41s-.1-.84-.37-1.01Z"/><path class="cls-27" d="m293.23,258.6l-2.43-1.48s-.02,0-.02-.01l-1.8-1.1c-.27-.16-.54.02-.61.41-.06.39.1.84.37,1.01l2.43,1.48s.02,0,.02.01l1.8,1.1c.27.16.54-.02.61-.41.06-.39-.1-.84-.37-1.01Z"/><path class="cls-27" d="m274.27,247.85l-2.43-1.48s-.02,0-.02-.01l-1.8-1.1c-.27-.16-.54.02-.61.41-.06.39.1.84.37,1.01l2.43,1.48s.02,0,.02.01l1.8,1.1c.27.16.54-.02.61-.41.06-.39-.1-.84-.37-1.01Z"/><path class="cls-27" d="m256.37,237.8l-2.43-1.48s-.02,0-.02-.01l-1.8-1.1c-.27-.16-.54.02-.61.41-.06.39.1.84.37,1.01l2.43,1.48s.02,0,.02.01l1.8,1.1c.27.16.54-.02.61-.41.06-.39-.1-.84-.37-1.01Z"/><path class="cls-27" d="m303.5,208.01l-2.43-1.48c-.27-.16-.43-.62-.37-1.01h0c.06-.39.34-.58.61-.41l2.43,1.48c.27.16.43.62.37,1.01h0c-.06.39-.34.58-.61.41Z"/><path class="cls-27" d="m284.93,198.78l-2.43-1.48c-.27-.16-.43-.62-.37-1.01h0c.06-.39.34-.58.61-.41l2.43,1.48c.27.16.44.62.37,1.01h0c-.06.39-.34.58-.61.41Z"/><path class="cls-27" d="m266.11,189.31l-2.43-1.48c-.27-.16-.44-.62-.37-1.01h0c.06-.39.34-.58.61-.41l2.43,1.48c.27.16.43.62.37,1.01h0c-.06.39-.34.58-.61.41Z"/><path class="cls-27" d="m247.61,179.71l-2.43-1.48c-.27-.16-.43-.62-.37-1.01h0c.06-.39.34-.58.61-.41l2.43,1.48c.27.16.43.62.37,1.01h0c-.06.39-.34.58-.61.41Z"/><path class="cls-27" d="m237.2,227.71l-2.43-1.48s-.02,0-.02-.01l-1.8-1.1c-.27-.16-.54.02-.61.41-.06.39.1.84.37,1.01l2.43,1.48s.02,0,.02.01l1.8,1.1c.27.16.54-.02.61-.41.06-.39-.1-.84-.37-1.01Z"/><g class="cls-50"><path class="cls-14" d="m670.17,501.49l-15.7-18.67c-.23-.38-.49-.76-.8-1.14l-16.82-20c-.9-1.07-1.36-2.25-1.31-3.41.03-.89.35-1.75.95-2.5,1.89-2.38,5.81-8.28,2.15-12.64l-10.86-12.92c-3.11-3.7-8.14-6.24-13.03-6.97-2.11-.31-3.6,1.05-2.53,2.32l6.3,7.49c4.69,5.57,3.31,11.73-3.05,13.69l-10.12,3.11c-6.36,1.96-15.4-1-20.08-6.57l-5.86-6.97c-1.13-1.35-4.05-1.34-4.68.02-1.27,2.72-.62,6.23,2.16,9.53l10.86,12.92c3.66,4.35,13.86,5.92,18.15,6.39,1.37.15,2.7.5,3.91,1.01h0c1.57.66,2.89,1.58,3.79,2.65l6.74,8.02c.23.38.48.75.79,1.12l25.79,30.67c3.65,4.34,11.74,6.33,17.97,4.41l.6-.19c6.23-1.92,8.34-7.04,4.69-11.38Z"/></g><path class="cls-46" d="m602.54,413.03l.04,12.99,12.01,2.39.72-5.9s-7.81-8.53-8.23-8.59c-.42-.06-4.54-.89-4.54-.89Z"/><path class="cls-46" d="m564.77,427.7c13.48,9.17,30.45,16.6,48.93,23.27l-1.12-13.36,11.92,21.46,3.34-24.48,2.94.64v13.11l-1.67,33.47,9.3,10.49,11.85,4.51s5.09-2.77,5.56-3.4,6.77,1.28,6.77,1.28v12.43l-7.89-5.37-6.23-2.83-9.35-2.81-8.11-1.75-12.56-17.65-45.79-28.94-7.87-6.27-.04-13.83Z"/><path class="cls-46" d="m605.42,424.86c-2.11-.31-3.6,1.05-2.53,2.32l6.3,7.49c4.69,5.57,3.31,11.73-3.05,13.69l-10.12,3.11c-6.36,1.96-15.4-1-20.08-6.57l-5.86-6.97c-1.13-1.35-4.05-1.34-4.68.02-1.27,2.72-.62,6.23,2.16,9.53l10.86,12.92c3.66,4.35,13.86,5.92,18.15,6.39,1.37.15,2.7.5,3.91,1.01h0c1.57.66,2.89,1.58,3.79,2.65l6.74,8.02c.23.38.48.75.79,1.12l25.79,30.67c3.65,4.34,11.74,6.33,17.97,4.41l.6-.19c6.23-1.92,8.34-7.04,4.69-11.38l-15.7-18.67c-.23-.38-.49-.76-.8-1.14l-16.82-20c-.9-1.07-1.36-2.25-1.31-3.41h0c.03-.89.35-1.75.95-2.5,1.89-2.38,5.81-8.28,2.15-12.64l-10.86-12.92c-3.11-3.7-8.14-6.24-13.03-6.97Z"/><path class="cls-17" d="m605.42,411.56c-2.11-.31-3.6,1.05-2.53,2.32l6.3,7.49c4.69,5.57,3.31,11.73-3.05,13.69l-10.12,3.11c-6.36,1.96-15.4-1-20.08-6.57l-5.86-6.97c-1.13-1.35-4.05-1.34-4.68.02-1.27,2.72-.62,6.23,2.16,9.53l10.86,12.92c3.66,4.35,13.86,5.92,18.15,6.39,1.37.15,2.7.5,3.91,1.01h0c1.57.66,2.89,1.58,3.79,2.65l6.74,8.02c.23.38.48.75.79,1.12l25.79,30.67c3.65,4.34,11.74,6.33,17.97,4.41l.6-.19c6.23-1.92,8.34-7.04,4.69-11.38l-15.7-18.67c-.23-.38-.49-.76-.8-1.14l-16.82-20c-.9-1.07-1.36-2.25-1.31-3.41h0c.03-.89.35-1.75.95-2.5,1.89-2.38,5.81-8.28,2.15-12.64l-10.86-12.92c-3.11-3.7-8.14-6.24-13.03-6.97Z"/><path class="cls-46" d="m648.9,493.11h0c-2.57.79-5.89-.03-7.4-1.82l-2.34-2.79c-1.5-1.79-.63-3.9,1.93-4.69h0c2.57-.79,5.89.03,7.4,1.82l2.34,2.79c1.5,1.79.63,3.9-1.93,4.69Z"/><path class="cls-11" d="m648.9,493.11h0c-2.57.79-5.89-.03-7.4-1.82l-2.34-2.79c-.86-1.02-1-2.19-.38-3.08,2.16-3.07,10.61,5.87,10.12,7.68Z"/><path class="cls-46" d="m603.65,456.21c-4.15,0-7.04-.53-7.12-.55-.64-.12-1.05-.74-.93-1.38.12-.64.75-1.06,1.38-.93.22.04,22.16,4.07,31.19-11.04.33-.56,1.06-.74,1.61-.41.56.33.74,1.06.41,1.61-6.46,10.8-18.73,12.69-26.54,12.69Z"/><path class="cls-46" d="m649.36,500.34c-5.55,0-10.27-4.82-10.52-5.08l-31.47-39c-.41-.5-.33-1.24.18-1.65.5-.41,1.24-.33,1.65.18l31.4,38.93h0s6.58,6.69,12.3,3.3c1.45-.86,2.21-1.84,2.34-3.01.28-2.55-2.52-5.28-2.55-5.31-.03-.03-.06-.06-.09-.09l-31.69-37.07c-.42-.49-.36-1.24.13-1.66.49-.42,1.23-.36,1.66.13l31.65,37.03c.46.45,3.62,3.68,3.22,7.23-.21,1.92-1.39,3.52-3.48,4.77-1.59.95-3.2,1.32-4.74,1.32Z"/></g></g></svg>